<mxfile host="app.diagrams.net" modified="2024-06-07T10:34:29.520Z" agent="Mozilla/5.0 (Windows NT 10.0; Win64; x64) AppleWebKit/537.36 (KHTML, like Gecko) Chrome/125.0.0.0 Safari/537.36 Edg/125.0.0.0" etag="CPuYI9sqlL5L0WO9NTB6" scale="1" border="0" version="24.5.1" type="device">
  <diagram name="Page-1" id="kXF3auJrnvaHmJrNjHUJ">
    <mxGraphModel dx="1823" dy="803" grid="1" gridSize="10" guides="1" tooltips="1" connect="1" arrows="1" fold="1" page="1" pageScale="1" pageWidth="827" pageHeight="1169" math="0" shadow="0">
      <root>
        <mxCell id="0" />
        <mxCell id="1" parent="0" />
        <mxCell id="W8nmrq4eX2epeuX94_2g-1" value="" style="shape=image;verticalLabelPosition=bottom;labelBackgroundColor=default;verticalAlign=top;aspect=fixed;imageAspect=0;image=data:image/png,iVBORw0KGgoAAAANSUhEUgAAATkAAAB1CAYAAAA1DJZSAAAgAElEQVR4Ae1dB3gVxRb2vefz6XuWh4oiFiwgSBMLTVA6CvrAAlhQUXpREAWUIiAIBBAB6aIgYqFICQQCSC+BgJSEHgg1lJBCeoEk533/6obN3pnZvXd3k3s3c/Ltt3snOzNnzsz8O3PmzJnrSJKUgJSAlICLJXCdi8smiyYlICUgJUAS5GQjkBKQEnC1BCTIubp6ZeGkBKQEJMjJNiAlICXgaglIkHN19crCSQlICUiQk21ASkBKwNUSkCDn6uqVhZMSkBKQICfbgJSAlICrJSBBztXVKwsnJUBEeXmUp7mKm0wkyBW3GpflLTYSOHbkME37aiz1aPsWtWnSiFo3bkid27Smr4YOoUOREcVGDhLkik1Vy4IWFwlkpKdR0KCB1KBKJapX6THmNfTj3sVFHHLHQ7GpaVnQYiGB9LQ0ZeTW+InHaXLQKNq9YztF/LGLXq3/3J9gV7ki9enUkS4nJBQLeaCQciRXbKpaFrQ4SGD0oIHU5InHade2bQWKuyc8nEYN7E9hGzcq+rkC/3T5DwlyLq9gWTznJHD16lWKj4/3uHJycpzLVJDy4chIZYo6Z/o0wVvF718S5IpfncsS2ySBcePG0XXXXVfgKlWqFGVkZNiUg3fJjOz/KTWvWZ3SUlK8i+jyt10NcmlXM+lQ8hnacukgrbu4j3YmRNGFzETKzctzebXK4jktAYziypYtWwDgAHiDBg1yOmtm+tnZ2fRS7Zo0uHcv5v+Lc6DrQC479yotOL2F3twymiot60rllnakcks6UNm/rkeXdqIu4ZOLc53LstsggWXLlnkA3A033EBnz561IXXvkzgUEUH1KlekebNneR/Z5TFcBXL7L5+iF9Z9ng9oKrDp769vCXJ5tcriOS2BJk2aeIDcm2++6XS23PSXL1ygrJ5uWrOG+05x/YdrQC7i8kl6PKSHIcAB8CTIFdfmbk+5Dx48SH//+98LgNzf/vY3CgsLsycDH1L5buIEBeR2btvqQ2x3R3EFyGGK2nTtQFMAJ0HO3Q26MErXvXv3AgAHXVyNGjWK1DRj3BdDFJDbun5dYYggoPJwBcgFx+wwDXAS5AKqffods4mJiXTrrbd6gNzcuXMLndereTmUlXuFUjJTadinfRSQGzn2c5p6MJgG7J1D3cKnULuwr5Wre/gUGhb5K80/tZlOp12i4rT05gqQ6xo+WQhyWIBou3Us4b3n1vST09VC747uyZBlNlK6dGnKyspytJDnMxKVBTWAV5vNo5R2XC3kA6q0vBuVX9yBKo9vTU+3b0h1O9ehWp/Uporft+H2iUeXdqQ3tgTRxtj9xQLsAh7kcvJyqUZob26F1l3dl06kXsxvgJjaLosJz/8tH6QEzEqAZzYydOhQs0l4/d6RlBjqsmMSVQjuzG3j2oU1WBJUmdmGagyqT+XntxPGKbekI/XbM4uycq54zVcgRQh4kLuUlaSYiWgrWvv8/XG52hRIDdKfeWWZjdx44410/vx5R9j+5eRGxQxK257NPj+6qD1V/PkdIcipaXXeMYmu5uU6UgZ/SDTgQe5Q0hlhRW6NO+gPcpY8BLgE4I+tcePGHrq4d99915GSLTy9RfjxVgHKrvu0qBWOlMMfEi0UkMvNy6XkK+l0Ki2WIi+fpH2JJ+hA0imKSY+nzJxsS3qBXQnHhCAXHn/UH+RsyAOmQhcuXKCIiAjasWMH7dy5k44dO0bJycmUm2v9K5uenk4HDhyg0NBQmjdvHkFRjvuqVauUcKe2ImEfZ2xsLP3xxx+0fv16WrduHW3fvp1OnjxJsNL3lpDeqVOnlHTmz5+vlGPBggW0adMmJR+AkRO0f/9+ptlIeLj9qg/0kyrLuwvbtV3gpqYD/V58VrIToivyNG0HOQDaibSLtOjMNhoS8RO9vjmIaob2pvLBnQp8mZSdCEs7KsPx5uuH0LDIX2hvYjTlGUAeVpQmR4XQxCPByvXp3tnCxgCdg/queseOCH+ghIQEmjp1KjVr1ozuvPNOgq0VLnU/JJ7/+c9/UpkyZeiVV16hiRMnUnR0tGlTBWweHz9+PD377LP073//2yN95KPm+Z///Ifq169PkyZNIqwg+koAmRMnTijptGzZku655x4FHNR81PLhXqJECXrttddo165dhtkBJDt37kz33XdfPs+qnNRy/OMf/6AqVapQUFCQpTKwmOnWrVt+vaj51q5d23RdsNLkhX28e6awTavAZPf922OhPJYCOtwWkIMyf+2FffTZ3tn07Op+BcDMm4oA8L27bZwy4uNJFSO/SiHdLDWCojYGTktLo4EDBzJNEdQOxLujI7/zzjvCzoVR4ahRo+i2227z6Ji8dLXhAJ+xY8cS0jFLKNOMGTOoVq1aBB616Rk9P/PMM9zyQN/VqlUrj1GUUZolS5akX3/91Sz7wvfwMbrllls8ymRX+trM47NTfNbDedPXWO+22jRCy4prni2D3NwT66n2qk8sgY5e4NVX9qKDSaeZQg50kMO0p0KFCh4dxqjTav9frVo1Lihgetu0aVNL6at5IR2kJyIAIUaYd999t8958kBuz549dO+99/qcLkaLI0ZY77gAfFUm6v3+++93xGwEMyB9fyis3zBHgVMLt5FlkMOoyIlKaLx2AGXkeOpsAhnkMOW6/fbbPTqM2nHM3nkgB8B54YUXLKev5aNRo0Z05QrfxGDhwoWW82OB3NGjRwmjMS0vvjwD6KwY6kKmjzzyiAcfw4cPdwQLPt0zy3R/ejy4E1Vf3qWAAworfREzqcPJReNgwBFh/pWo34IcKgujRD0FKshhUcHKqETbwXkgN2HCBI/OqI3n67NoNIQpm6/pqvH0IIcFiSeffNJyumr6mH5D/r7Q0qVLPfi46aab6OLFa7aXvqTLioMlkxYbvjAEuforutKSPYMo9thIij8+ktZFDKYGK82pcGou70LPhHShCks7MvOBgbDbqNBArnxwZ6q8rCtV/Mv9kZkvDkt3Fqgg98Ybb3h0FrUT6u/QaaEjwQZLvxEc77JALjU11XDkg1FNpUqVCGYPPXv2VHR7mDojXM+D9jf0UVghZZFZkLv++usJrohw4Vmbpx7kMP3V5q9/Rhrw+DF58mT6/vvv6fPPP6dy5coJ4/Tu7f3BLVhEadiwoUe67dq1Y4nCchgM259a0ZMJPmp/aR82jhKT9lFWUjglnZ2hgByALurIcAL4qe9p781Cu9PsXf0p+shw5f2E4yMp7swM2nhqMXUJ/4awA0J9f3nMDsvl8LcEHAU5VNiEw0vpj4RjlJSdRupeu5NpF2la1Ep6IuTDfOGqQtbeq4b08LDGhsNLmKBgJRbXrONrhGksOROW/64aJyrlXKHWw969ew2V8dgP+dFHHymmEFB0Y5qEEQ0U7ytXrqRevXoR9EDo8CyQmzVrlkdn1IIDPNauXr3aQ5eHjrx8+XJDndro0aOZMhOBHIBsyZIldObMGbp8+TJhcQIX9HwAzSNHjiimIHhHNf3A1BgrqFretc8YlcEERU+ZmZnKAoX2Xe3zf//7XyVvfTzR78jISI+PDMoE8x4nCPow7GzALp2vDy9RtnH13f09lV/aSWnjn+z+jq7kXnOtnpd3hVIvzMsHuq37hxQYoVUJ7kTTwz+jS8f/HPEBDC+fmkhX0g7jMNb8IuyMj6Jm6wYr097fz0mQyxeM+iDSybUPG6++xrzD/1vlZfxhNnQE5zLEpwptjI0UghxvAYPF0OXsNIrLSva4LqUkknKlJtKltESKS79McRlJFJd57d30HP7exa5du3I7LTri008/rdh+sXjShgEAYOfWr1+/fFBQ/w9zDW2n1j5jZMgCBjUu7ui4MFfRxtM+V69eXft6/rMRyMHkxRtC+bT56p9F+jUAqUjnuXjxYm9YoS5dunjwUrduXa/S8Obl+KwUGnNoEenbErxajzn4G8E8S0+5V1Mo4cTYfKAbvOXPRcB6K7rSzgND88MVgDs9iXKvss2DoP+GdUToOWcAXM93Yf52dCRnBHIo6IB9c7ggBZCLShWPuuwEuZYbhynmL8hXvUp98Tzd0roS3fJ6ZSrR4Wkq2acelR7RjMpMbUWP/NqO4GkY18Qjy5j1BuNVkS4OIyzeVJCZICMQxsIiJX2LFi0YsTyD2rZt69GpVZABUAJE9GQ3yH344YdcHmAvaHRITKdOnbjxe/TooWef+xs2hrAdVMuv3mGA7G+Udik4H8yij35Jr67poUxfAWza60q62DAeNqopV4rmfAonZVrkILf4TJgQ5I6mxAjLbyvIbRhWgJdSQ5vSza0qKtdt71ajO3rVIYTdP/EVeujHt6nc4g6ETc64YGjMIqwSavVPamdR7zBPsEoxMTEe0yo1fdxnzpxpKotFixZ5dGptOps3b/ZIx26Qw4hRm6f2GQBmRBjpaeNon3mjUVaaY8aM8UgH6gJfdmmw0rcz7GpGVAEw005PVZBLjoFb9GtTVDvz9/e0ihzk1pzfUwBYtDo5jKaKCuRKfXEN4G5tW5Vu71Gb7h7UmO4b14IenPUmlV3UPh/gRCAHfZO2o2mfAX5RUVGW2wg80oqA1OzWI2yXEqXz448/evBqJ8hhRHrzzTdz5QWQat++vfB68cUXufGxgGJmixz0oQ8//LBHOqJVZg/BFGJAXm4mJZ4YUwDoVHBT79mp+wqRI//KqshB7vcLe/0O5EoNez5/BHfLG1WoRJcadFf/BnTvmJeozMzXqeyC9wsAnAjkRCuFmA7ZMTLAwoEWPPXPGOmZIfCClUt9fPU3fKnpyU6QwxRRBLIqH77ekfalS5f0RfD4Dd2dPg9sizMT1yOxQgpIPjuTC3IAwLxc901DzYpWgpxGUi03DKNSwzUA16Yylej4NJXsW49Kj2xOZaa1pkfmvecBcCKQGzJkiEeHUTvQXXfdZWpkoWGR+Qg9kZqm/o6OzdKlMRMiIqxC6tNQf3/55Zce0ewEOTgkUPNy6o7zGUSEVd4GDRp48IERpD9T6sXfuCCXcv4nf2bdcd4kyGlEHJeZRCdjz167LsXQqfhzdCrxAp1OvkinU2PpTHoc80q6kq5J6drjgAEDPDqM2oGxEmikSL+WEv8J3kTUNPV3O0GOZeVvJ8gBgPT82/3baOoOLzB620TIEFvM/JnS40K5IJeRULzPfZAg53DLhddYXkfF1BB2Y1YpODiYmwfyNuvUESYqoukqa5HETpA7fvy4sBwoCwDHyrVt2zahuFmrs/DO4u+UHs8HueyU3f7OvqP8SZBzVLxEU6ZM4XZcdFbsZ7VKW7duFeZh1njVaOHhhx9+8GDVTpBLSkoS6uRg4nLo0CFLF/zq8SguLo5pNoJVZ3+ntEvLuSO57DTxFN3fy2aVPwlyViVoEB9OKXkjOYTbcT4AdhTop1jaPM2akMD5pDae/hmOKfVkJ8ghbZE3k8cee8wWHaa+DOpv+KHTl/nBBx8UOihQ4xb1XaSTy047VNTsFWn+EuQcFj9W5EQ7CdCpsY3LCkGvZ4cxMPy26Tu5+hv7TVkLGHaD3EsvvcTlAbx4u2vBrFwxVQegqeVV77CXCwRKOT+XO5K7khoZCEVwjEcJco6J9lrC2AqkdhrWvXnz5qZ1c9CvwZRD3eup5vLyyy9z88BuBaNpMRTyADIWfwirWbOmmlWBu90gJ5regw+sSGPKapYAXtj7q5eXPj7LZRRs9mDW4v+UR5dPT+KCXGZSmP8XwUEOJcg5KFw16dmzZ3PBQwUVTMVgrY/Rkr5DQo+EzfXvvfee4sb80Ucf9XjHKA/4ROOBw759++iBBx4Q8siykUP57AY5jHzhgUWVC+uOTfrffPMN16EnjHlxTgb2+KJcsHETGQFD3vXq1fPI08wOC7WOi/Kel5NGiSeCuCCXHreqKNkr8rwlyBVCFcDItmLFih6diNWBsbpZvnx55bwFnA5VtWpVpZNq32WBHFwtYZSjfU//DPCAmyW4KYf+bfr06QQXUKIVVaQB2znelNpukEN1wA2UnnfWb4AXzq8A+Hfv3l3ZCQEnn/qpuxHIAeT1Ok38hheSQKCrGdFcgMOOh5Tz9riBDwRZsHiUIMeSigNh2Pcp0s2xOjEvjAVyYNkpp5ks0xFVRE6AHABV5NSAJxdeuBHIwdBXHxcfmEChjMQNQpC7fHpysd23ijqUIFeILRn6JpiN6DuUt795IIdpGsvJo7fpa99v0qSJ8EAbJ0AOVYKVXDgN1fLi67MI5DA9xv/1acMjcKBQcsxsIcglnAiivBy5rcvn+rTiTw6Z+tPeVZ+F4EVEHEFoND3Udzj9bx7IgQ0oyuGfTh/Hl9/PPfccwXZNRE6BHPIMCQkRbtg3WyYRyOFUM3060F/igxEIlJuTRgnRfH2cukE/J8t9ZzeYrR85kjMrKRvfg1LcyhkGGF3pFye07KWkpCj6Kb2eSd+Zeb8xrYa7cHjbNSInQQ5543Qzq6CNVVLWwgNWXuGjTi+Hr7/+2qjYfvP/K2kHhKM4FeSyUyO4PO+IP0Kzotdw/x/o/7AMcl13TqE6q/swr092G/sx2xR7QHH3fC2Nvvlp1V3Tl6JTxQeQhMUdpjqrr8W5lg546mvoqqmoKhC2bdiOBbswo9VEdEK4R2/durViDmF2vyvMQrCwwHL+qO/Y+I0Fhg4dOtCBAwdMiwWupKA/413YRWGVUF6AKc6CgDkMi3d9GIAarpmGDRtG8OnHot9++80jLbhjsnK4Nisfb8MSs1MLuDkXxU+LXWIK5DISPA+FgpPMX05uVM5daRfm6WFGlG8g/c8yyMENn+gyIwx+fHNO/lBZvD8z+Rf1Oxh5bdy4kTCVHTRoEPXp00cxf0AHxUEtcF1uZlTFKwdWXtetW0cYoeAcCayw4iAY3DFigzsoLIxkZPimt8GoknfxePI1HLs7AHg4vAaA/NZbbxG2e8HcA84Qpk2bRhs2bDAFVNiTqgfHbt26+cqabfGWx4RTu23jKDbT0xOzNpOcK3GUcGK0AnLnosfQyoNBFBf95291BKfek89+R0TX3KcnZKdQz13T892c4VwJ9CE3kmWQc6NQZJncLwGYjegXgTBK5NkSFqZE5kSvVcAHB0HNOBZKACQ95eVlU/z5nyj0wEjqt20gVQv586yUNzf0pT1Hx1BC9CiPEV5m4ibKysmmn09uoFqhvfMBDo5qcbB0Vg7/fF19/oH0W4JcINWW5NU2CbDMRp5//nnb0reSEIBN6yEbx3i22jyS+uz+jj6PmEs4tevVjcOoyvJuzIOlceJXx80D6NfIUfTH0a/owLGvKSRiKA3Z2ofqhPYqkLaaT8XlXSlDcBiTlfIUdVwJckVdAzL/QpcAvI2wzEbgYdkfCIeqq+Bj9Y4zVcsH4xySDsI0n17Zi3kamD/IwyoPEuSsSlDGDzgJ/PLLL8rZtTi/Vr2aNm1qiwNTO4Sx9sI+ISBZBT5W/Le3fWUH636ZhgQ5v6wWyVRxlsCFzETlmEsWGDkVNu+Upxstt9SBBDm31KQsh6sk8NqmEYU2mmu2fjBl5bpz0QGNQoKcq7qGLIxbJBASs7NQQK5W6McUlSI+wD3QZSpBLtBrUPLvSgnk5uVR1/DJjgIdVmxPpxkf0RjoApYgF+g1KPl3rQTSrmZSu7CvDYGu0e/9adX53bQpdj8N2DuHKi7rwo2DA9tfWj+UlpzdTjl514yDXStEOV11c9XKsrlBAlfzcuj742uops54V12AeH7dIMJChZZOpsXSZ3tnE4yJywd3VuK23z6BpkWtoEPJZ1y7s0ErA+2zHMlppSGfpQT8VAKZOdm05sIeGh75K727bRy9sWU0BR1YSNjnyiOM1JKvpBc7UNPLwy9A7uTJk4TzMFmXvx/qqxeo/C0lICXgXxLwC5D75JNPPDZKqxun4TtNUmBKYO3atTRr1izm9fvvvxdaoeA8ICsri3v5o+84eEjhyc7oUKJCE2yAZCRBLkAqKhDZbNGiBffjBRdThUWxsbFcPvAx9ccDa8qWLcvl+bPPPiss0bkiHwlyrqhG/yyEBDnf60WCnO+y08eUIKeXiPxtmwSsgFxaWhrVrl2be/Xo0cM0n3IkZ1pUrnxRgpwrq9U/CmUF5JKTk7nTNUwxGzRoYLqQEuRMi8qVL0qQc2W1+kehJMj5Xg9yuuq77PQxJcjpJSJ/2yYBfwG5y5cvE1wp8a7x48fbVma7EpIgZ5ck/WSDvjQhsa9C/SklfwE5f5KJWV4kyJmVlPF7ciRnLCP5ho8SkCDno+CISIKc77LTx3QU5M6fP08wahw+fDhhNez999+nzp07U//+/Wn27Nl07Ngx5ZQnu0dyMP7EMXQ46apv3770zjvvUKtWrZQTqj788EOaPHky4SATvGcnpaenU0REBC1evFjJA6dt4QQpnCw1ZswY+umnn2j37t2UnZ3NzBb8QGarVq1STu764osvlPhDhw6lb775RjnCEEf82c03kxkbAt0McgkJCQRjZ7SlTz/9VDk5DMc/op3hFDScuDZ9+nSlvs0eIakVud0gB2PoTZs20bhx45S+iNPaVF7RH3EC2sWLF7UsuObZdpBDB8RZnDh93ehwY5yWVLNmTapXrx53Jc2bHQ84LPjbb7+lqlWrctNTd1LgXqFCBfruu+98cnuNcp4+fVoBaxyNV7lyZcJZn9r0ec843xSAj5Oh0AHWr19POAoPJ7frT5BipQGZjBgxwvB0e7WVfvzxxwp/4FF/4QNgRABmfTz1d7t27bjRvQU5HC6jpluxYkWhLHGWrPqu9o6jFfWEusJxjCNHjmRerDj6NPAbIDB69GjlsGuz57+i/kqXLq0cMYkPmFmyC+TOnj1LPXv2pNtvv10oT/B5/fXX0//+9z8ys6MCuzG0cmc9r1lj7sBqfBBY8RH2+OOPKwMSs3JjvWcryKERvPDCC4bCZHVcXphZkMOByBAILx1ROADZbAMEsGFkCiA1A0iifP/1r3/RQw895BPPSBcHOm/dupVVrwXC8MXm8VGnTp0C77J+AAR48Z999llWFCXMW5CDWQgvH7PhK1as8OAHIFeiRAlu2oMHD/aIow3Ati+MplmH35jlC+/h4OopU6aYGonbAXIzZsxQ8vSGR7wLsEN5c3P5rpgwG6lRowZXpkgH7fPSJbG/OtSXqB/hHGKrZBvI4dBfUcV4K2j1fTMgh0542223CQWupse7Ix+j4frSpUtNj9Z4+dgdfvPNN1NkZKSwHUiQE4Mc1Ak8Qkd/9dVXLbUtfZ1jG5nRFFbUl4y2dQHUoabR5+vtb6h2kBaPoqKiDEG0ZcuW3DTi4+OVUS6Pr0aNGpEd+4ptATmc7v7kk09aFiqrsEYgB92b6CvNSpMXBqGKvl74MvLiFmV43bp1uQ0JDVSCnO8gB92xE3VrNEKxAnKYmtvFM6alIjIjn2nTpjGTgF6QxydGgRcuXGDG8zbQFpAbMmQIl1leIcyGi0AOX0Ns/TFKC8NhszqUOXPmcGXoryCH8kNvxiMJcmKQEwEObOuM2pcv/8eUUORGzFeQw6geahAjnqAvN9KZI4077riDMOLiEUZ6WHAR5Qf96cGDBwskgYUOXhzotrFIYhdZBjkIALoGHsNq+MMPP0zdu3enCRMmKMr+r776il5//XW69dZbhXFFIIfzM9X0WXcofLEQgal0SkoKHT9+XFldEk1ty5cvz51KmAG5kiVLEk5if/vtt6l169bKuZ5mGpPK//33308Y4mNBADot/Fb/J7pDqc6jQAE5dJYyZcool1G5b7zxxvx31Ti4YxFHT0Y6ORHIPfbYY0L5gw/oJbGiivbdsWNHwozgpptuEsZDXb7yyit6VvN/+wpyL774ojDfxo0bK6vCWB2GkfSOHTuUtipqW1jlF1FiYiI9+OCDwnyfeOIJwowPFBMTo4AnL09YIthJlkEOoMVjFuGobNEKJsAHnZqXhgjkRIrPu+++m2BuwaKwsDChbo33FTECOZzAztK1HD58mJ555hluGVF2jDQRX68DwfQ5ODiY7rzzTmF8DP15FCggp+Xfzr2rRiA3cOBAbdYFnrECz2ubWLSJi4sr8L76Ax9/rBbz4iIcIxaeHtgXkEM7E31Q8RFhtU/w3KtXLy6vADBePLW80ItjdCoqL1b50Z6bNWvGfe/ll18WqozU/Ly5WwY5rEyKCjZv3jxDfnyxk4PSU7QqAxs5EbVt25bLd+/evZlRjUAOnjN4hK/mPffcw80TMgTg8wjL8aLyijasS5ATT1d9BTnMRkQEcMVoTdQ/fvzxR2YSvoAcVkR5eWHGJJp2JiUlCWdVZsxKMCLm5Y9wADBmKLx3YEKFUaHdZAnkMjIyhMPy6tWre4xMWAXwBeSgzOQJC9NnGOaKCLZ8vPgYWrPICsghPdgD8fJEuNFyO0a1vPjQTfJIgpwY5GCwzSPRSA6GtUYEW0jRx6lr167MJHwBOYwsee3jvffeY+ajDRS1EzNlhZ2qGR05i0fM+MwAqZZfs8+WQG7//v1coaIgQUFBpvjwBeRggMsSFsIaNmyoDK8xxOZd0NPxGh/0LKr+QFsAqyCH0SWPZ4TDJZCIRNN6CXJ8yRlNV50EOXBVpUoVbr1jJsQib0EOACPSjWOVlNcX1HD0V177hI7ZDEHvLdJ589LH7hCnyBLIhYSEcIWCwpj14+8LyImmydANYEVHdBkZdmI6rCerIIdtXbxKRrgRyLVp04YbX4Kcvrau/TYCOWxr4pHVkRzSxSiKV+8wBmeRtyCHjzYvD4Tjwy3qD/ifaFUWO5PMEqbgIl70/8MUFnXkFFkCOaPCQBFqhnwBOayC6oVl5+8NGzZ4sC5B7joPmdu540Er8MJceHAa5LCjgtc2oStjkbcgt3PnTm4evLy9CYfdmlkCYL311lum+KlUqRKlpvKPVTSbp+g9SyCHVVORoPB1MUO+gByELsrb6v8WLVrkwboEOXeCnGgHgR0jOex35bVHjLAwXdSTtyAH0xleHnaEY28kjc4AAAf8SURBVGcNi0893+pvLLQZbVmEukhk36mmZfVuCeSMrJ1PnDhhij9fQA42cHZUHi+NuXPnevAuQU6CnLa9mFHGoxGJdF12gdy6desc7Q88PbVHJ/krAIuSWMDTyov1/NFHH/GSsC3cEsgtXLhQWAgMoc2QLyBXrlw5bt7w8gEdgpUL+kY9SZBzJ8jBVRKP7BjJYaTI6uAIg5KeRd6O5GDUy8sD4UjPSn/A1kHWYhyLd4TBpZqIH/V/MCsJDQ3lJWNLuCWQg9GsyizrjpGeGfIF5EQLD6hQJxSZbgS5WrVqGVbRxo0bufXsBp2c0yCHnT2s/oEwnrG7tyBntPBgtGvBsBF48QK2RvIsF1hygP2o0aKbF9l7vGoJ5OCrisW0GoZtTWbIF5CDfZGaj/4OAePLZjcFKsiJ9hbCANOI5s+fz5W1yAjZW1dLWj4Kc+GhX79+2qwLPFsdycHC/4EHHuDKD9uwWOQtyMFbh8hRBfzzeaNTY/FkJgx7Z7FSq++TRr/hx07kHMNM3rx3LIEchIbtU7wC3HDDDXTkyBFe3vnhvoDczz//zM0X/MARpx1uWvKZJKJABbkPPviAKytMF4wWiETxX3vtNa2ICjw7CXL169cvkJfoh5EJiZMgB+/BvP6BcOxSYJG3IIc0RNulkJeTtmjIHx8m0UdBJAf8D16WnSBLIAeGMFoTMV+tWjXu/jy1QCL7L5iKsAgbjI02QcOA0WjnA9JGJ8DID5urMTrlUaCC3KRJk4R1BC/FvOk9jDuxssarY9HKpBWQwxY3Xp4I57ULVt0ZgRx8r/FI1GmNFh6wRcnIwzFvxuELyM2cOVMoM9jBwamFGUK/gV2nSDbadCBjUT+GB2kjsxLYrmKDgd1kGeQWLFggFCwa5F133aV408W2DSwtw6so9tFBp4dNzKL5O2+LFQRhtAEaecMzBZbwcaYDKg6jT4zw4Ktq9erViltq7SJGdHQ0V8aBCnI4d0IEGPgfRmSoD9QPzgOAcwN8+Y3228KpAI+sgBws+EWbzcEz7DRVcMZGefhR27Jliwc7ToEcPFFje6D+Q4r2DQerom144B9AzZui+QJy+DDANZJRXTdp0kQ50wFeriFn9AnUOXwzwqoAzh5U70BYcDBDog8p+iDalRmzEsjUmwUOM7xZBjlUqJE9jJHQRf8HkPEIJipGOxe0aQNMMfoTncXgRpBDJzd77oVWXkbPODcApgI8sgJySNPI3RL4g3eW++67L99foC/uz7GnmEeikZwqH4yQ4JIJu07QSUUjXzUO7hh58cgXkENacBqgzcPoGbuD0Id4HxQzILd9+3bubgmkiym7SvgIGXkrgUcUO8kyyIEZnMglGo0ZCZr3fwgIbpFENHHiRK8qlZeXGu5GkIP8YNysltGuO04jE5FVkBN5juWVoShAjseLKPypp54S6ox9BTmMzIzceon40v/PCOQwghb5koMLdT3B3bw+H+1v9Hs7zUpsATkUQrR4oC2AN8+ipX1VcBildOnSRSg0b/J0K8hBXtCLeCML0bvopEbTCqsgh73PIh5Y//MF5NB2eWRmJMfiQxQGO06jLY++ghzKce7cOdvOWxGBHKa5zZs359YRZKefyoM/ALGRtxI7zUpsAzmADY7JMxqKiipf/R8cSGLVCWmaIeg1sP+QN+RW0zVzdzPIoXHZAXTQk5rxv28V5FD33h4i4+8gB4Bj6Q317dwKyCEtAB2Mf820edE7IpDDqXW8uFAJ8RZVwB8WtFS9Hy8NmJWYxQC9/LS/bQM5NVHsRYNi05fpK+LAdXR4eLianFd3bKo3s5WEJVTkDcNYkWPBQF140AsRK2xQBrPkIAqDPhPmFiI9nDYvO0AOynS0CRFf2v/5AnLwWMsj0UjO2w86Ri9Q7pshqyCHPKAvx5Yykf2cVnb6Z9i78ZwXYJQtKr/oBDS1/D/88INhvdphVmI7yKkFwDmoOOAGXwL4uWKBHsKA5rB5wlcBDgatEkZ1UHTC3xx0BbzRHb40WFWFNToEaWafLQ4eAZ+8CyMlEWF5nBcX4SLPwkgXejVefLO7S1T+0AGgS4XeC4p7npygREf9jB071tToTU0fdxgR8/g14zFaTQvTIjhJFa1Woi1hCs0CEYwGwD+PF9EhyCKQw7kaMLOAnz+sarLaONo3XHrDhT1vJVUtp/aONsnjF/tUvSHYr2GlHGciYxsZi0+Eoa7h6BZ2kYsXLxZ6B8HZKTz+YM2A9mVEqJepU6dy00H6MNNB/Vshx0BOyxQqF4c3w4xj27ZtyoVnhHlT8do0zT5j2RrgggUMXHv37lVOvjdTCWbzcMN7kBNOVIKMcGA1RuSwGbTawOyWDYzLAZ4wF/nyyy8V8MLJT5j+OEEikNPayaHDYgqP9oU2jqkaPpz+Jj/0N9Qr6hf1DD5R79hW5XRfdKJ+zKRZKCBnhhH5jpSAP0rALMj5I++Spz8lIEFOtgQpAYEEJMgJhBMg/5IgFyAVJdksGglIkCsauduZqwQ5O6Up03KdBCTIBX6VSpAL/DqUJXBQAhLkHBRuISUtQa6QBC2zCUwJSJALzHrTci1BTisN+SwloJOABDmdQALwpwS5AKw0yXLhSQBGxPCpxrrgmkqS/0tAgpz/15HkUEpASsCCBCTIWRCejColICXg/xKQIOf/dSQ5lBKQErAgAQlyFoQno0oJSAn4vwQkyPl/HUkOpQSkBCxIQIKcBeHJqFICUgL+L4H/A8FgCaPxa3wEAAAAAElFTkSuQmCC;" parent="1" vertex="1">
          <mxGeometry x="120" y="60" width="205.99" height="77" as="geometry" />
        </mxCell>
        <mxCell id="W8nmrq4eX2epeuX94_2g-3" value="" style="shape=image;verticalLabelPosition=bottom;labelBackgroundColor=default;verticalAlign=top;aspect=fixed;imageAspect=0;image=data:image/png,iVBORw0KGgoAAAANSUhEUgAAAFYAAABvCAYAAAB2IzeSAAALLUlEQVR4Ae2cV6gUSReAr2sOa2DNOaCuWRGzi1nXBAYU14yuCuasmB7cRX0wC8YHQVdFRVQMmAOs2V2zrqKIOecca/mK//Rfd5yZ2+N0j3vnVkFP93Sfqur6ulKfc6oTlA2+EEjwJVWbqLJgfaoEFqwF6xMBn5K1NdaC9YmAT8naGmvB+kTAp2RtjbVgfSLgU7KuauylS5fU7t271c6dO//T2549e9SjR498QhVZsmHBPnz4ULVs2VIlJCQkmy1Hjhzq5MmTkVHwQTos2Pbt2ycboObDL1KkiLp//74PuNwnGRLsnTt3kiVUAdywYUP14cMH9yQ8lgwJdu/evYnAbtiwQR06dOg/u2XKlCnR/QJ48ODBHuNyn1xIsNu3b090o2/fvnWf6jeQzJkzZ6L7lZq7ZMmSb3A3KrTaMF7Apk+fXh0+fDjmcOO+xlJz8+bNq27evBlTuCkCLHBr1qypYtmdpRiwwO3evXvMam2KAgvcefPmxQRuigObJk0axauv3yHFgaXW/vDDD+rKlSu+sk2RYIFbqVIl9fLlS9/gpliwwG3Xrp36/PmzL3BTNFjgTp061YINRyDUKy3wwm3fffed2rRpU7ikv+paiq+xQP/+++/VuXPnvgpgqEgW7P9qdOnSpdXTp09DcYr4vAVrdBXNmjVTHz9+jBhisAgWrAGWbmHChAnBOEV8zoINAJsqVSq1evXqiEEGRrBgA8BSa7NkyaKuX78eyCqi/3EDtlChQmGnVeGmXMGuLV26NCKQgcJxA3bu3Lmegp0/f34gq4j+xw1YSk3zPX/+/Fdtp0+fTvRgLNiI6lF4YbNLsGDDs4roqgUbES73whase1YRSVqwEeFyL2zBumcVkaQFGxEu98IWrHtWEUn6BpYJ9r59+7TX9rRp0xJNmC9evKi9pfGYjscNf1oTLJ6KeLDjyX758uWIHhDC+s0LU3CTJk0Umh0zcXv8f7NOtWrV1N9//+0acMKNGzdUvnz5LNAgWq7AioXWyy3cBEzAgQkk1/+DBg1SixYt0spqv8pQpUoVVybzhNSpU8cN2C1btuimeuLECV/LdPz48SS7hAS/nuy3SDdWYN14iScJNnfu3KpLly5q+PDhqk+fPopFE1mzZnVqBPZ8Br5ff/1VjRgxQv3yyy+qXLlyznUA41XduHFjvaGQZhs4cKCW5RoyRYsW1ec6duyozPUEtCiJiwx+V71791YDBgxQhQsXTpRPKLAMyvXq1dNrEhjtq1evnihepJVg1qxZ0dXY5s2bqzdv3nyRyK5du5wb4zhYWLBggSNToEABR2TFihXq2bNnzv8///xTtWjRQr169co5R1NOly6djs+AIeGPP/5Q9+7dk7/a9wpgAiYYWLy5jxw54sSRgzVr1jh5SHy3+5kzZ0oyIfdhayyFJjC37devnxo2bJhauXKl2rhxo1MYDG/4nPbv31/16tUrkVfJTz/9pOVMsKTHwzh27JhzUywbIi/Jjwu0EgpqguX8tm3b1OLFi9W7d+90fBwt8GZBNhhYefBPnjxRo0aNUuPHj3cqy2+//eaUwy1U5KIGe+HCBX3z1D4WpUnmUhD+y9w3T548qmLFiqpOnTrOqDl06FAdxwTLhJt4xYsX12nzc+rUKUWTz5w5s2PXx6cKORPsgQMHnPzGjRvnxK9Vq5aWDQRbqlQpR4YZg9y/KLF5KeD+uZcOHTok2sIN6lGDxY5kBm5k3bp1iimH3CQ1OZRFc8aMGVrOBIvdnrj0oxJMe9Xjx4/16YULF2o5E+yUKVOcfOvWrSvRVdeuXfX5QLBt2rRxZJ4/f65Im+3169fOecaQvn37Ov/lIEOGDE5eUlbZRw2WxEePHq0OHjzoNB8yZo0tA1j58uWd2smSn7Fjx6oxY8Y45+jkuRkT7JAhQ/Q5+lAJv//+u1MImiwhKbC0DAndunXT8QPBtm3bVkQUU6Rgi6xpaZ06ddKOyLyByiaDqsA091GDNZsDLuYUQAKrUHr06CF/VdmyZXXhfvzxR+ecW7BmXxcO7P79+50HwAOXULt27aBgy5QpIyJKHqgJqFixYk565vmkjqMGyyI67OtMjRhMGLgkMPVhNJfAiM2qFPpLCV6DJV0Gzjlz5jgt6J9//tH9MzACayznGHgJL168UJMmTVKdO3fWAxjLV1mLkBTEYNejBstgESxQMDKkFpsjObK8UsriYK/BMgMxv0fAVJA5tBQ+GNiCBQvqbiBYOVatWuXElTTc7KMGy8DBCwFTKfpOOnlGfjPztGnT6j6Kpom3HtcaNWqkJ/WMyvwPfEHgHDMLmfiXKFHCSbN+/fr6PM0YOXPwYiaAwoj7YcZhxkO2cuXKOm6NGjWc9CQvysFLzsiRI/VgV7JkyUQyyLndogbrNiM/5QLB+pmX27Qt2AhqoVuoyMUFWKZlWDPYGjRo4Lq5RgIqUtm4ABtpoWMhb8HarsD9iByLGplUHjGpsbza8kkmRu+kbiherscErKyPWr9+fUzBMp9FK4UeItYPLK7Bip4V5Y8F6+FgkqzBojNF4XzmzBn95bWrV69q1Rs6WKklZlfA5/qwDNy6dUsrbLBPiRx7bGEocq5du6bTQ1vVqlWrRDLINW3aVFsKbt++rdjoZlgGL2nt2LHD0RmwmlDUgT///LMjI7J+7KPuCkTTjgIDHazYv6gtcsMClq8EBa7qw74lcniSyPcBMKuIQptl7WjFRK5nz56OPheNlMRhX7VqVS336dOnYDoVbWSUdPzcRw1WTDNYX+VGK1SooFVv8l/AUlLUctQs8RbhQYjpRrRg+EGhXEbXC3jCgwcPFEp1TDOij0VTxTkWEGNcJIiaD8BHjx7V52hN/Gf72hXgUha3+6jBCgxqIxp9TNws5jVvQMDyKVSBaC6bzJUrl7Y2SC3DGIiWjM1sESireWWVQH4it3XrVn0adWTGjBl1/sm6j0WtJ01WCkzTFbMJgAXs5s2bHeCo5yTkz59foalPKmBGwacgqYB+lXyTNVgKkC1bNtW6dWs1efJk9ddffznlFn2mgDXnsZhBJAA2e/bsTr+5fPlyRw8r+lj2GPVQWkuYOHFiUDkx8glYfAbMFhSL46i7AkzCgJGbpblKEG8SN2CJL/5OdBlAlDSxlYmVlrc4BiwCX72QZo8s3QQ+ARIPhwsCDhwYFnlZECcPkfFrHzVYTDM0faZPZ8+eVe/fv9eF4duy4gbkFiyWAYmP+ZlBh5kGAZgCAcuABAYy5GRmIIMXsmarEPlA1yZJ0+s9JqekQlhPGGYDvNnIlycYvelLzTnl2rVrdW2cPn26AwdzMjWUjcFLCobJhIEIGz8PjAfEHBRTi8iwp6Vg7GNaxsPAb4F86JJEjtrJIEmXIHlRa+W6n/tly5YlxVUlSM3z80biKW1mPm5c5xMYweOp4H6XxXQCCVdtE+jvxPfJ75tK7ukzE7p79244ns41vbgDuLw1ef0xheQOUu6fcQK/WtOnwSEY4uCL7xXgp8pLAc5vkjB7GXAYdOJx483QLC+DMRxk+heCX8jTX4AVyeT2jW6572j2Jljzdftr0rRgDWoWrAHDy0ML1kuaRloWrAHDy0ML1kuaRloWrAHDy0ML1kuaRloWrAHDy0ML1kuaRloWrAHDy0ML1kuaRloWrAHDy0ML1kuaRloWrAHDy0ML1kuaRloWrAHDy8NvAtbMNCUc+6boZrFxSgAYqoy4TEUTQloQcJbA3TJUxvF8HtcmnEmiCSHBkigGRRYhxzPEwLLhkDF79uxomOq4YcEigYMvH3wwPQPj9RjXKIyoXoQkwXqRSUpMw4L16albsBasTwR8SvZf66cm7vucWXoAAAAASUVORK5CYII=;" parent="1" vertex="1">
          <mxGeometry x="140" y="138.63" width="40" height="51.63" as="geometry" />
        </mxCell>
        <mxCell id="W8nmrq4eX2epeuX94_2g-4" value="" style="shape=image;verticalLabelPosition=bottom;labelBackgroundColor=default;verticalAlign=top;aspect=fixed;imageAspect=0;image=data:image/png,iVBORw0KGgoAAAANSUhEUgAAAGAAAABTCAYAAABgdgI7AAAIeElEQVR4Ae2caagPXxjHry37vrywluz7VqSQQtnr4t7IkpA1JEkosoviBcpOiCgSL4hIJIqsEZFddpJ9e/Q9/Z/T+c+d38yZOXNnxs956ndn7syZc848n/OcmfOc50wOWUlUAzmJlm4LJwsg4UZgAVgACWsg4eKtBVgACWsg4eK1LeDevXu0aNEi6tGjBzVt2pTq16/v+2vQoAF16tSJpk2bRufPn0/4VtNZvC+AL1++0PTp06lEiRKUk5Nj9OvTpw89fvw4nZpIqFaeAN6/f09dunQxUroTWvXq1enkyZMJ3W76is0I4Pfv35Sbmxup8hlGsWLFaPny5enTRgI1yghg586dhaJ8hoDtiBEj6PPnzwncdnqKzAigcePGhQ4AENq1a0cPHz5Mj0ZirokrgGvXrsWifLYGPBeOHj0a862nozhXAOvXr48VAEAUKVKEevfuTdu3b6ezZ8/SxYsXU/WDlX779i1yaq4A5s2bFzsAtoY0b8uUKUNDhgyJdEzjCgADpzQrIum6wVonT55MP378MLYIC8BgcDlgwAD69euXEQQLwAAALHHBggUWQJJdUsmSJY3cK9YCDC0A8GfPnh3aCiyACAC0aNHCAkiyGypatCh9//49FARrARFYAOA/efLEAkjSCjBhFUasBURkARZARIoMa0UWgAVgNl8ctuWl5TprAdYCrAXYt6AErSCVXVDx4sUJw/Tu3buLiQxMZmTbb9CgQdS5c2d69OhRGANwD083nZBBNNyePXsIcUVWvDUQ6UCsSpUqtGvXLu8S7dn/aSAyAHXr1qVbt27JzOGcOnDgAE2cOJH69u0rYkoRV5qNv/79+9PChQvpxYsX8v51dyIBULFiRbp9+7Ys8/DhwwQgaXlHj6seZcuWpc2bN0s96OxEAmDv3r2yrGXLlokQk7huOo3lbNy4UerDb8cYAIJ3WeIIZ0yjwp11Kl++PL18+ZLV4rk1BnDo0CFRwOvXr6ly5cr/XLfjVD7/j55AR4wAVKtWTc4E4SHEhdttDvXq1UtH/2bjgJEjR8pC4grm/VvgIuhYR4wsgB++d+7csa3f4QbB6F9HQgOAm+Ht27eijDVr1lgADgBY1qUjoQF07dpV5t+zZ08LwAFAN9w+NIAVK1YIAB8/fiREh/0tfXMc9cSADIsbdSQ0gOvXr4v8Dx48aJXvaP0I2tWVUADq1Kkj8x83bpwF4ACwYcMGqR+/nVAA4GCDYCVl7dq1LQAFANYOBFkLHQoAnG2Qy5cvW+UrysfzpU2bNkI3un8CAyhVqhR9+vRJ5L9kyZLUA4B7BF0Cfu3btxf1xSCJj0XtPpk7d66u7kW6wACwkI4FU3FxvFWYlIEukiUvL0/UF9OILFF3oefOneOstbaBAaxdu1Zk/ObNG8KKdxPlxHGtGwAc47np0qVLR3YPmBH8+fOnluI5UWAAd+/eFdfu3r3bteIrV66kffv20YQJEwgt7dSpU+J/jBVwHD84qlj5nB4PdhxDF8fpMMCbMWOGWJV44sQJGjx4sLyOr3duW7ZsSXg1vnTpkpgcQbfDwhbQsWNHWUbVqlVFnvBroVws0UUemM1DHnA4OsvI9P/w4cO5KO1tIAD4TA3LsGHDXCt29epVkQSg8JYEuXHjBmGJJwvg8E1cuXJFHN6yZYs4Vq5cOU5WIOQb+aH/5mud2xo1akj3CDLBKsanT5/K/BiAWxe0atUqke7du3f06tUreU3NmjUzlucsH4EIQSUQgJkzZ4r8YWbccpyVYABIiPXGaE1wW6gAxo8fL2/KC8CDBw+oSZMm1LZtW7kkFIvinGXy/zw6h+LxfMIndrZu3Sp1ogMAiWFBsBw41FBvzt9ri+4YcyJBJRAA/swMVrJnqgwDwMNITaMCUAdvXgDUBeP3798X94a3FzVfdR/dFOTMmTMyDeCx6AAAvEqVKsnr1fy99tWZQS5PZ6sNoEKFCnKp/pw5czJWkAHgkwNqhVUAkyZNkuf4meLWBY0ZM0am44iLTZs2yWNq/tjnr3LBEcbnGjVqJPWgAwBdFl8bZBv28zvaAPAAZGndunXGSjIARAeoN4B1VF+/fhVZLF26VJxr1qyZXOjsB+DmzZviWi8AHJOE+VjuOkaPHs3VJh0A+CaEWm/dffaNycI0d7QBbNu2TWSJFoLhdqaKZQKA9NxCAeLIkSPiYccP6igAqN0AFIIgAXhrWQoLgOob47J0t1oAoPBnz56JPBFykUn5OO4FACGLz58/F/mgr8XENaePAgDKnzp1qpynRmgkwixZCgsA+8a4nCBbLQAdOnSQeQ4cONATgBccnMObCV5nMWjxSxv2PB6irVq1oigHWV51gTWHFS0A8+fPF/mj60DMi1dl/rVzgMy+sTAQtABcuHBB5H3s2DGrfIf3E5/iNBFfAPicGH+SxTRsPRutY926dSb6948LGjVqlCygYcOG1gIcFsADRKmkgDu+FgAHFQTRz9nYgk3uqXnz5gHVXTC5JwDE/sA5BVm9erUF4Gj9s2bNKqjRgEc8AXTr1k1mh4UVJq0lG689ffq01E/YHU8A7F388OGDjf1xtH6MNTCYNBVXABzpDD8+BJMT2diCTe4pPz/fVPfielcA8GTWq1dPFqC6j00qnU3X7tixQ+rHZMcVAPw+U6ZMEfnCWVarVi1rAUoXBM9umAV5bqBcASAhBxfZ2J+Cn2BQva5uSg1yLCMAzmTx4sW29SutH93o8ePHWT3GW18Af0PsT5zPFszmRSm+AMaOHWst4D8LGDp0aCSvnipAXwBIjGlAhHzE2dLSVBbmLhCQxrN3qgJN97UAoBD4vPfv3y/ejhD/no2fHFDvqV+/foTwGcwzm/j7/QBpA/DLyJ4PpwELIJzeIrvKAohMleEysgDC6S2yq/4A366b0zI5BS8AAAAASUVORK5CYII=;" parent="1" vertex="1">
          <mxGeometry x="220" y="138.63" width="57.83" height="50" as="geometry" />
        </mxCell>
        <mxCell id="W8nmrq4eX2epeuX94_2g-5" value="" style="endArrow=none;html=1;rounded=1;strokeWidth=10;strokeColor=#FF9914;exitX=0.5;exitY=1;exitDx=0;exitDy=0;" parent="1" source="W8nmrq4eX2epeuX94_2g-3" edge="1">
          <mxGeometry width="50" height="50" relative="1" as="geometry">
            <mxPoint x="159.66" y="200" as="sourcePoint" />
            <mxPoint x="200" y="270" as="targetPoint" />
            <Array as="points">
              <mxPoint x="160" y="229.74" />
              <mxPoint x="170" y="250" />
            </Array>
          </mxGeometry>
        </mxCell>
        <mxCell id="W8nmrq4eX2epeuX94_2g-6" value="" style="endArrow=none;html=1;rounded=1;strokeWidth=10;strokeColor=#FF9914;" parent="1" edge="1">
          <mxGeometry width="50" height="50" relative="1" as="geometry">
            <mxPoint x="239.99999999999997" y="190.26" as="sourcePoint" />
            <mxPoint x="200" y="270" as="targetPoint" />
            <Array as="points">
              <mxPoint x="240" y="240" />
            </Array>
          </mxGeometry>
        </mxCell>
        <mxCell id="W8nmrq4eX2epeuX94_2g-7" value="" style="endArrow=none;html=1;rounded=1;strokeWidth=10;strokeColor=#FF9914;" parent="1" edge="1">
          <mxGeometry width="50" height="50" relative="1" as="geometry">
            <mxPoint x="200" y="300" as="sourcePoint" />
            <mxPoint x="200" y="700" as="targetPoint" />
          </mxGeometry>
        </mxCell>
        <mxCell id="W8nmrq4eX2epeuX94_2g-9" value="" style="ellipse;whiteSpace=wrap;html=1;aspect=fixed;rounded=1;rotation=0;strokeWidth=3;" parent="1" vertex="1">
          <mxGeometry x="230" y="220" width="20" height="20" as="geometry" />
        </mxCell>
        <mxCell id="W8nmrq4eX2epeuX94_2g-11" value="&lt;b&gt;&lt;font style=&quot;font-size: 15px;&quot; face=&quot;Georgia&quot;&gt;&amp;nbsp; &amp;nbsp; Untar ||&lt;/font&gt;&lt;/b&gt;&lt;div&gt;&lt;font face=&quot;Georgia&quot;&gt;&lt;span style=&quot;font-size: 15px;&quot;&gt;&lt;b&gt;cp2scratch&lt;/b&gt;&lt;/span&gt;&lt;/font&gt;&lt;/div&gt;" style="text;html=1;align=center;verticalAlign=middle;resizable=0;points=[];autosize=1;strokeColor=none;fillColor=none;" parent="1" vertex="1">
          <mxGeometry x="250" y="188.63" width="110" height="50" as="geometry" />
        </mxCell>
        <mxCell id="W8nmrq4eX2epeuX94_2g-12" value="&lt;b&gt;&lt;font style=&quot;font-size: 15px;&quot; face=&quot;Georgia&quot;&gt;Sequencer output&lt;/font&gt;&lt;/b&gt;" style="text;html=1;align=center;verticalAlign=middle;resizable=0;points=[];autosize=1;strokeColor=none;fillColor=none;" parent="1" vertex="1">
          <mxGeometry x="-15" y="200" width="160" height="30" as="geometry" />
        </mxCell>
        <mxCell id="W8nmrq4eX2epeuX94_2g-14" value="&lt;b&gt;&lt;font style=&quot;font-size: 14px;&quot; face=&quot;Georgia&quot;&gt;-&amp;gt; Fastq&lt;/font&gt;&lt;/b&gt;" style="text;html=1;align=center;verticalAlign=middle;resizable=0;points=[];autosize=1;strokeColor=none;fillColor=none;" parent="1" vertex="1">
          <mxGeometry x="25" y="230" width="80" height="30" as="geometry" />
        </mxCell>
        <mxCell id="W8nmrq4eX2epeuX94_2g-19" value="" style="endArrow=none;html=1;rounded=1;strokeWidth=10;strokeColor=#FF9914;" parent="1" edge="1">
          <mxGeometry width="50" height="50" relative="1" as="geometry">
            <mxPoint x="200" y="270" as="sourcePoint" />
            <mxPoint x="200" y="280" as="targetPoint" />
          </mxGeometry>
        </mxCell>
        <mxCell id="W8nmrq4eX2epeuX94_2g-20" value="&lt;font style=&quot;font-size: 14px;&quot; face=&quot;Georgia&quot;&gt;- BCL convert&lt;/font&gt;&lt;div style=&quot;font-size: 14px;&quot;&gt;&lt;font style=&quot;font-size: 14px;&quot; face=&quot;Georgia&quot;&gt;- BLC2Fastq&lt;/font&gt;&lt;/div&gt;&lt;div style=&quot;font-size: 14px;&quot;&gt;&lt;font style=&quot;font-size: 14px;&quot; face=&quot;Georgia&quot;&gt;- Bases2Fastq&lt;/font&gt;&lt;/div&gt;&lt;div style=&quot;font-size: 14px;&quot;&gt;&lt;font style=&quot;font-size: 14px;&quot; face=&quot;Georgia&quot;&gt;- DRAGEN&lt;/font&gt;&lt;/div&gt;" style="text;html=1;align=left;verticalAlign=middle;resizable=0;points=[];autosize=1;strokeColor=none;fillColor=none;" parent="1" vertex="1">
          <mxGeometry x="90" y="250" width="110" height="80" as="geometry" />
        </mxCell>
        <mxCell id="W8nmrq4eX2epeuX94_2g-23" value="" style="endArrow=none;html=1;rounded=1;strokeWidth=10;strokeColor=#7EB2DD;" parent="1" edge="1">
          <mxGeometry width="50" height="50" relative="1" as="geometry">
            <mxPoint x="210" y="289.66" as="sourcePoint" />
            <mxPoint x="320" y="290" as="targetPoint" />
          </mxGeometry>
        </mxCell>
        <mxCell id="W8nmrq4eX2epeuX94_2g-24" value="" style="ellipse;whiteSpace=wrap;html=1;aspect=fixed;rounded=1;rotation=0;strokeWidth=3;" parent="1" vertex="1">
          <mxGeometry x="190" y="280" width="20" height="20" as="geometry" />
        </mxCell>
        <mxCell id="W8nmrq4eX2epeuX94_2g-28" value="" style="shape=image;verticalLabelPosition=bottom;labelBackgroundColor=default;verticalAlign=top;aspect=fixed;imageAspect=0;image=data:image/png,iVBORw0KGgoAAAANSUhEUgAAAGIAAABWCAYAAAA0TkO1AAAJr0lEQVR4Ae2dBagVTRTHnwkGdhdiYGE3KoqJrdiiYic2NgaY2IKJiSIGKCgGdndgFwiKgt2d5+M/33fm27fv7t3ZuO/ue3cG9s3e3dmJ85s8Ey+OtAmEBOICEQsdCdIgApIJNAgNIiASCEg0dInQIAIigYBEQ5cIDSIgEghINByViHv37tHo0aOpVKlSlC5dOoqLi1O60qdPT9WqVaPp06fTy5cvA5L0YEVDCcTv379p3LhxlCZNGiXBhwOUKVMmWrt2bbCkEIDY2IL49esXtW3b1jMAM5zevXvT9+/fAyCCYETBFsSYMWN8h8BQUF09efIkGJKIcizCgrh9+zalTJkyYiAAJEeOHHT06NEoiyH6wYcF0aNHj4hC4JKBtmfZsmXRl0YUY2AJAg10tmzZEgUEAwH4d+/eRVEc0QvaEsTdu3cTFQLDyJw5M/Xr10+UkO3bt1OQrl27dtHVq1fpz58/vhOzBHHs2LGogGAgQbbz5MlDkyZNok+fPvkGxBLE3r17NQibAWvBggXp2rVrvsDQIGyEbVcyMUC9efOmZxgahEcQAFWiRAn69u2bJxgahA8gAGPx4sUahF31kRjvixUrpkEkhqBVwnjw4IFrGLpq8qlqAqjdu3drECo5NtJuVq9erUFEWsgq/i9fvlyDUBFUpN1oED7W815gaRAahNriAS+5LCl9q0uELhG6RBhLrC4RukTYlwioiZs2bUp9+/YVa6OwPio5XoMHD6YDBw4EbxxRu3ZtMeTHuiht7CXgu64pQ4YMtGbNGvr796996NqFlICvILDq49y5c9JzrOTbsGEDtWvXjkqXLk1FihRJ1leTJk1o27ZtrhYX+AYiderUdOTIEQnh0KFDVKhQoZic965bty69fv1aykLlxjcQEyZMkOFt3LiRAMbYtYu1+5o1a5KT9tEXELlz55ZLS1A1pU2bNqYhcKZDW6lqfAHBpQELrypUqKAh/DeuqVq1qioH633WTtY13bp1SwR48OBBDcEwuMQC7q9fvyrB8Fwi0BNigz0PXCy1/e9g98WLFyyesLZnEEOHDhUBYNyQL18+DcJQIrDK/cePH2EB8EvPIPbv3y/8unTpkoZggIAaoXLlyixnW9sTCGxo5Dpw2rRpGoQJxOTJk20BsANPIFq2bMn+iF2jul2IrwQ9f/68lI/djScQK1euFP5jy26kt3glNcg5c+Z0pOrwBOLRo0cCBPRJSU1QkY4vdj85Ma5BlC1bVobTsWNHDcLUPkD558S4BjF+/HgRDvQpWbJk0SAMIKBnc7oX0DWIkydPChDHjx9PAKF48eLUoUMHcWFPXKSrAaf+QxeGjgZ6NTNnziTMrmE1t1N/rNxD++rUuAKRNWtWqVkcO3ZsggSMGDFCxqNcuXIJ3lslAM9r1aolv61SpYqjb8P5y++gFX38+LEMg2+gJ1uxYoUvx1zMnTuXvVW2XYHo3LmzDKBMmTIJhBVUEIULF6b379+LuH/58oXmzJlDw4cPpxMnTsj0LFq0KEF6GKKqjYMCnBpXIDZt2iTCQc4KFblQIJo1a0aXL18WF3I9qrbPnz/T9evXCUUZ/nTt2pVwAg6bO3fuCPdLliwR79FFhuAuXLgg6mCEj+2/qAo5HlioYAzn7Nmz4syPRo0a0dKlS9lrUTXxN6jTeWbx58+flDdvXuHf7NmzhV/r1q0j6NEePnwoBrBQiBYoUECGyf7AxmSYG+MYBITBiiycFmCMBN+HAtG9e3cZP2yLxdgDm+phnj9/Lo4dGjRoEH38+FG6+/DhA719+1ZMP8JvPp0AwtqzZ4/cRAi/8ufPL+LSrVs3+f2rV6/kffPmzen+/fvi99OnTylFihTx4o5VJmy6dOki3m3dulU8QoaBBgEZg/dYIzOY/UAchwwZwt44sh2DqFGjhgwAiWPhG207EPPnzxffGfva0MvAD6s2AtUKCwEb4uEWSjXkUhjkXjwzgoAeDJNWWNKDdg1gYU6fPi3cGuPcoEED8Q5/Ro0aJd4zCGSY8uXLi2cDBgyQ7urXr5/An3379sn3Tm4cg8DhVzDIITgQy5gYvrcDUbRoUfEdJpHYoErB91Yg2rdvz04J8x9c/bBwIXR8bwRRqVKlePHjQ7tQHXJc2W7Tpo30H70oPGcQCI/doavOBtUkP4cN3RvaHjfGMYgrV66IcMJNHNmBQO5ExHESGhu0IXhmBQLdYTbIdeajIdDw4nsjCKgZ8IwvXtyArbjmd/PmzWPvqU6dOuIbBnHjxg3pB0oXm5EjR8rnCKNFixb8yrHtCAQaMV6vhLqQE2i2vYCoWLGiTARyKfuNfj6HzVUTv0MDiZE+fhtBZM+eXX6Pd8aqcMeOHZQxY0bxvmHDhnLOHe1IqlSpxHMGgUEr9lKb/WjcuHE8/9H9dWscgejTp48Mh6sXFobR9gICOY7PuIDg0TPiKgA6LRgIBgeU4PeZM2dEo48wEYdwINC4snDZH2ODjo5C9erVpXDZLUoQqkA00OgowKB6Mys6WfcmHDj84wjEzp07hffoJxsFb77v1auXaETRkJYsWVK4Re7Gb1w82gZMflavXj3pJ9qLw4cPi64s3jMINM4TJ04UvSUsXkMjihPQtmzZQtwetG7dWvoZSvUC4Q0cOJBQxfJyF8BAl9zYDUaaGARgA/SbN29E+k+dOpVgJI6BqxejDAJC4MEQRo5m4Sf2bwjUnCPdxCHc0h8jCPbbar0Wr2RxC0MZhLF7Z8y9HMHkaIcCYZVOdIm9GGUQCxcuFOGgrkTpsIpQcnqOM5mwdJRH9lZpw5pfrubcwlAGwaNSdButIhSrz6Ga8WqUQBjXLvXs2VODMIxNkPk2b97slYPaSr9hw4aJgKBiwDFqsZrzQ6UbYw6nK79DUVMqEbwl6eLFixqCqTQYNQGhBKz6zBYEdgDx6VxTp07VIEwgZs2apSrrsO4sQbASrVWrVtIDHCEdqnjG8rOIH66I800h4FWrVgkQmIPwYwCVnKBhcoj1XzK3uryxLBEYzkPwfIj6+vXrdWkwVUvGuQmX8pefWYKAC8yYsYEaOjnlZj/S4uXEMpYr22FB8NocaBxDKdD8SExS9QNzKphC9cuEBcGB6OOp/59c4oyzYMECFo8vthKISP4zD05YUrIxIcTz575QILIeWRsDQIlI7H9hEFQwgMATV0YZeb1XKhEIBDNlnTp1itkubK5cucRpx7wEyKvgzd8rg+APnz17RujKTpkyhdB969+/f7K9oGObMWMGYXCruheO5eTUdgzCaQDavZoENAg1OUXclQYRcRGrBaBBqMkp4q40iIiLWC2AfwC7YaUi+1agYAAAAABJRU5ErkJggg==;" parent="1" vertex="1">
          <mxGeometry x="463.03" y="180" width="56.97" height="50" as="geometry" />
        </mxCell>
        <mxCell id="W8nmrq4eX2epeuX94_2g-29" value="" style="endArrow=none;html=1;rounded=1;strokeWidth=10;strokeColor=#FF9914;" parent="1" edge="1">
          <mxGeometry width="50" height="50" relative="1" as="geometry">
            <mxPoint x="200" y="340" as="sourcePoint" />
            <mxPoint x="250" y="380" as="targetPoint" />
            <Array as="points">
              <mxPoint x="210" y="360" />
              <mxPoint x="220" y="370" />
              <mxPoint x="240" y="380" />
              <mxPoint x="250" y="380" />
              <mxPoint x="330" y="380" />
            </Array>
          </mxGeometry>
        </mxCell>
        <mxCell id="W8nmrq4eX2epeuX94_2g-30" value="" style="endArrow=none;html=1;rounded=1;strokeWidth=10;strokeColor=#FF9914;" parent="1" edge="1">
          <mxGeometry width="50" height="50" relative="1" as="geometry">
            <mxPoint x="200" y="420" as="sourcePoint" />
            <mxPoint x="250" y="460" as="targetPoint" />
            <Array as="points">
              <mxPoint x="210" y="440" />
              <mxPoint x="220" y="450" />
              <mxPoint x="240" y="460" />
              <mxPoint x="250" y="460" />
              <mxPoint x="330" y="460" />
            </Array>
          </mxGeometry>
        </mxCell>
        <mxCell id="W8nmrq4eX2epeuX94_2g-31" value="" style="endArrow=none;html=1;rounded=1;strokeWidth=10;strokeColor=#FF9914;" parent="1" edge="1">
          <mxGeometry width="50" height="50" relative="1" as="geometry">
            <mxPoint x="200" y="543" as="sourcePoint" />
            <mxPoint x="250" y="583" as="targetPoint" />
            <Array as="points">
              <mxPoint x="210" y="563" />
              <mxPoint x="220" y="573" />
              <mxPoint x="240" y="583" />
              <mxPoint x="250" y="583" />
              <mxPoint x="260" y="583" />
            </Array>
          </mxGeometry>
        </mxCell>
        <mxCell id="W8nmrq4eX2epeuX94_2g-36" value="" style="endArrow=none;html=1;rounded=1;strokeWidth=10;strokeColor=#FF9914;entryX=0;entryY=0.5;entryDx=0;entryDy=0;" parent="1" target="W8nmrq4eX2epeuX94_2g-83" edge="1">
          <mxGeometry width="50" height="50" relative="1" as="geometry">
            <mxPoint x="250" y="583" as="sourcePoint" />
            <mxPoint x="330" y="553" as="targetPoint" />
            <Array as="points">
              <mxPoint x="270" y="583" />
              <mxPoint x="290" y="540" />
              <mxPoint x="310" y="537" />
            </Array>
          </mxGeometry>
        </mxCell>
        <mxCell id="W8nmrq4eX2epeuX94_2g-41" value="" style="endArrow=none;html=1;rounded=1;strokeWidth=10;strokeColor=#FF9914;" parent="1" edge="1">
          <mxGeometry width="50" height="50" relative="1" as="geometry">
            <mxPoint x="250" y="583" as="sourcePoint" />
            <mxPoint x="330" y="613" as="targetPoint" />
            <Array as="points">
              <mxPoint x="270" y="583" />
              <mxPoint x="290" y="613" />
              <mxPoint x="310" y="613" />
              <mxPoint x="320" y="613" />
            </Array>
          </mxGeometry>
        </mxCell>
        <mxCell id="W8nmrq4eX2epeuX94_2g-46" value="" style="shape=image;verticalLabelPosition=bottom;labelBackgroundColor=default;verticalAlign=top;aspect=fixed;imageAspect=0;image=data:image/png,iVBORw0KGgoAAAANSUhEUgAAAQ4AAACSCAYAAAC0YiQpAAAZi0lEQVR4Ae1dCbhN1fs2RWTOPCTzUMpjLPMUTYYypAyRUkmmeipDpjJLUpLMiQyFJITMUimpSIhCKDJlltv6P+/u963/2uvsfe857uXuc+/7Pc951j57rfWtb79rrXev6ZwvhaIQASJABCJEIEWE6ZmcCBABIqBIHGwERIAIRIwAiSNiyJiBCBABEgfbABEgAhEjQOKIGDJmIAJEgMTBNkAEiEDECJA4IoaMGYgAESBxsA0QASIQMQIkjoghYwYiQARIHGwDRIAIRIwAiSNiyJiBCBABEgfbABEgAhEjQOKIGDJmIAJEgMTBNkAEiEDECJA4IoaMGYgAESBxsA0QASIQMQIkjoghYwYiQARIHGwDRIAIRIwAiSNiyJiBCBABEgfbABEgAhEjQOKIGDJmIAJEgMTBNkAEiEDECJA4IoaMGYgAESBxsA0QASIQMQIkjoghYwYiQARIHGwDRIAIRIwAiSNiyJiBCBABEgfbABEgAhEjQOKIGDJmIAJEgMTBNkAEiEDECJA4IoaMGYgAESBxsA3EG4ETJ06o48eP68/ff/8db51UEGwEoo44Nm3apFasWOH6nD59OtgoJ3HrsmXLplKkSKE/tWvXTuJPzMeLOuK49dZbdQOVxrp161bWZCIiQOJIRPATqWgSRyIBn5SKJXEkpdoM71lIHOHhxFSxIEDiiAWcJBpF4kiiFXstH4vEcS3RDkZZyZ44vv32WzVkyBDVqlUr1aBBA3Xfffepxx57TE2dOlVhtyAc2b9/vxo8eLBq0aKFaty4seratatat26dk/XixYtqwoQJrs/q1atjVbtr1y41ZswY1bp1a3XPPfeou+++W7Vt21aNGzdOHTx4MNa88+bNc5U1d+5cJ31MTIxatGiRevzxx1XDhg1VkyZNHJv/+OOPWPUh8s8//1QjRoxQDzzwgGMLdEAXdELCJY5z584p2NOtWzd1//33q/r16zt4t2vXTj333HNq+vTpatu2bery5ctx2sQEiYtAsiWOnTt3qpo1a4YstMqCK8KsWbOqN998M9Yamjx5ssqQIYOnHpDRoUOHQuLat2/vqfPIkSOqWbNmKlWqVCF5xK7rr79evfTSS+qff/7x1FG2bFlX3jJlyjhk4/esWbJkUWvXrvXUhZuffPJJCDGILXXq1FGwORziAFnmz5/fZZvosUMQEyXYCCRL4vjqq69U5syZw2rEaNQ9e/b0rMVZs2aplClTxqqnbt26IfFexLFv3z5VsGDBkLR2p5LvjRo18nwz28SBzlqyZMlY9ebOndtzdLVhwwaVLl26WPNWqFBBZcyY0ZXG3o79/fffVaZMmVxp5Dm8wo4dO3rizZvBQSDZEcfJkydVnjx5XI0YnR/TjPHjx6tRo0YpvKXtBi1Dfqm6o0ePOiMSO1327Nmd6UWNGjUURgd2PL7bxIEhf/ny5UPSgnTeeOMNZ9RTvXr1kPhXXnlFzNGhTRxSPkYxt99+u+9bH9MgUzCiKV68eEiZIAlMMerVqxdCGFKWTRyY5kgcQpARpisYrU2cOFH169dPtWnTRuXNm9dJR+IwayKY18mOOAYOHOhqxGjIY8eOddUO5uKlS5d2pcNb+99//9XpsC5idgZcV6lSRZ06dUqn2b59uwKR2Ols4pg9e3ZImmeeeUbrwQXIBesdpi6Mmux1GC/iQIf88ccftb7+/fu79EBny5YtdTwu5s+fH5KmaNGi6vDhwzodpmFFihQJSWcTxxNPPOFK06NHD63DvMAzYpSD9RNKsBFIdsRhdyxMD7wEZGJ2Ulz/8MMPOilGFHa8LIjqREopL6KyiaN58+YuXdddd53CyMiWzz77zJUO5WMx1BT7+ZAGb3ZTcNIWZZj233HHHWYSZxHVjMc1FoxtgW47nU0cXbp0caUBKWPN48yZM7Y6fo8SBJIVcWAkYa9J5MuXz5mmYKpifqpWrepq7OgcU6ZM0dVqLwhiDu8lX3/9dYgemzhuuukmVxroMm2Ra+yG2J30hRdecBVrE0fq1KnVhQsXXGnwJUeOHC5dOJFrSqVKlVzxKBcLobZgx8W2ySaO999/PyQN8qAuChUq5OzwDBo0yPkZAXdUbISD+T1ZEQe2Te1GHsn3YcOGObWIKYu981GqVCnPGg5nV8VvVyYc2zp06OAq1yYOLI56ib0QaxMHpiVm+WnTpnVN1UQnsLAXUG3iuHTpkqpYsaJLn6nbvC5cuHCsuzxSLsPERSBZEYdXJzYbbVzXAwYM0LWVPn16V0fw66A7duxwpUMZ9ogjkh0e28ZHHnlE24QLmziw0OslxYoVc9llE0eJEiVc8Ri5eI0GcC9NmjSutDZxoHz8YvbFF19UuXLlcqW1nwffgQdGMpTgIpCsiAOHsexGjinJN998E9YHxCNi7zigY9kLlUiLNQi7c9jEYesCCYVr0969e8UkJwyXOOwybeKoVq1aiN3YMrYF9+zn8yIOM9/u3bvVzJkzVe/evZ1zK/a0D/rsXR4zP68TH4FkRRyA2167wCGvcP4/wj5hiSmC3WFwetQU7BJ4dUCbOLx04fRoXGLbhPQJRRzYLrWfb/jw4SEmDR06NCRdXMRhK8F/eaAezPK6d+9uJ+P3ACGQJIgDpy07derk+3n66ac15DirYTZQXOOYuNdoAcPwZcuWKex6YI5uyvr160P0YKcCw3HsfsyZM8c5Tm2Xhe82caxatSpEFw5W4eCULVhT+OKLLxS2OPGmtiWhiAM7RLbtKM/cOcKJU7vDI49NHBh19e3bV/3888+2uc53TEtuuOEGV3m9evXyTMubwUAgSRCH3cDt7+jQIpiu4CCUnQYdAL/FwJsOR55xyMnsFDigZYu9jWrrxHevhU+bOKC3adOmITbhANm9996rnn32WQXyw+9ocMpTyoFuWxKKOKDXa8sZZWMXyF5cFZsQ2sTx9ttva5uxiwKifvLJJ53fp+DgV86cOXW86MFRd0pwEUh2xIGqwO5KXMewpQFL6EUcGKVUrlw5pNFLHrxFFy5cGBLvRRw4W+HXUUWfHV5t4sBaRFyLmdgqxu9dTNtiIw4znd81fgODaR4luAgkS+JAdeDwEc5AmKMKr4aMeIwsMPXwkrNnz6o+ffq4OhhGOHir4od0v/76q6tToQy/k5M45j1y5EjfY+FiH3Z08IvZt956K8SkhBxxQDlOv5YrVy7kGXAGAyMhnBGxFzdt4liyZIlD1PYZGnkeCbGtixOzPBgWUq2BuxF1xIGGHO6Og6TDT+f9BIfCMFcfPXq0Mw/HGgW2XXEiEmsJfr9CtfVhPeTAgQMOWUCnCAhHOoaE+P1JbIIy8UM8/DIXx8NhE37PgfUZrIeY+m09Nj74mbqX4Ai64IMQ+fwEz7Zy5UqF38ZgJwSEBUIU+e6771y6QJheghHa8uXLHWyx0Irnwue1115zfoUbziK1l17eu/YIRB1xXHuI/EvElMc8hm6nxJvztttuCyEOv0VCOz+/E4GgIkDiiEfNYGcFJ0jxS1GMDjZu3Oj8EQ3eqvgjHvusBEYcDz74YDxKZFYiEAwESBzxqAevLVmZjniFOI3pdfYiHiYwKxFIFARIHPGAPVziwKIgfrbOY9TxAJtZA4UAiSMe1XH+/Hm1dOlS56/8MF3BsW389wXOWmCagv/PwOIm1zTiATKzBhIBEkcgq4VGEYFgI0DiCHb90DoiEEgESByBrBYaRQSCjQCJI9j1Q+uIQCARIHEEslpoFBEINgIkjmDXD60jAoFEgMQRyGqhUUQg2AiQOIJdP7SOCAQSARJHIKuFRhGBYCNA4gh2/dA6IhBIBEgcgawWGkUEgo0AiSPY9UPriEAgESBxBLJaaBQRCDYCJI5g1w+tIwKBRIDEEchqoVFEINgIkDiCXT+07n8IzJgxQ/+58YIFC646LocPH1bTp09XAwcO1OXKnytLePDgwatuR1ALIHEEtWYCaBecJ8EVgnzgXAnuIWzBv8pLGgnj6wsW3vrk7xg7d+5sF5mg3z/44ANPR1pSvoRbtmxJ0HKjSRmJI5pqK5Fthac76TQSTpw4McQqOJySeAnhAiE+ci2JA57qxG78kxueBy5GQZxyHyGJIz41yrzJBgEv4oD7B1OOHDmi4LrS7GC4ji9x4E+e9+zZ43yOHj1qFpmg1/DtYtoO/zYihw4dcsWROASZgIb/XjqjYi4c5+cKMVAx/yRIzZrEkSZNGt2J4NBKZPDgwfq+mcYkDjiUmjRpkuratavjM7dWrVqqWrVqqkmTJgr5vZxt+61xwPmTrDnAWRQEfmfhfQ86MUqAw6lwZMqUKapLly7afhBIx44dHf2wNy7igENw/ActRidwY4nyMVKC71y4+DRl2rRp2u41a9boKDi6kueZO3euvo8podxHaOvTCa/RRVRMVU588oD64/UU/FwhBhd/W5YgzckkDjjAFg/z6KQQeKArUKCA0/EqVqyoihQpojuhSRy//PKLvm++3eU6U6ZMavXq1S6b/aYq6KiSD643u3Xrpr/LfYyANm/e7NLn9QV/Li157LBBgwaxEgecb8FBuJ1PvgMXc4SCRVeJe/jhh7U58JIn9+EcXWTFihX6PnQltpA4rrAzRhORXQ3iwJscHufRyDGygPtLvCGl0WNHIjbiyJw5s2rbtq2zazFhwgTHvWSpUqV0fqwt4A0uEg5xSNllypRR1atXV6av2nAcYcEXru15D7oqVKjg+LSNbcTRrl07bTvKbdSokerQoYPKnj27vp8vXz516tQp55E2bNig7+fPn18e03GjIc8BZ1/Hjx934vr27avTP/roozp9Yl2QOEgcYbc9c8QB4oD/WWnkmCbUqFHD+Q4P93BG7UcciPPajcH2puhDuGPHDm1buMSBziqEAyIQfSCicATbsJIHoel714844AoUnVzywceuCPKnTp1ax4nf4EuXLimMrCTP7t27Hbvz5Mnj3JN1oo8//thRJdgi/XvvvSfqEy0kcZA4wm58NnEgI+byaMxmJ8DbEeJHHIiDo2p07IYNGzpveaQ100Mnhuci4RIHOqDIzJkzdcdMnz693I41vBLimDVrli4HdtuOt2rWrKnj8RwimO4hPT5wcg7/O7jOkCGDs5OD6549ezpOxtOlS6fTBuH8CImDxCHtOM7Qizjmz5+vGzQaOtYZZHHTJAJzjWPOnDmutzDyeX0WL16sbQqHOPDWv3z5ss5j2pY2bVp9P7aLKyEO+A0W+zFts6VVq1Y6HgvBIqNHj9b3Mf3AlA166tatq4T0sFa0atUqnQ5TpyAIiYPEEXY79CIOdFQcBJOO89BDD2l9fsRh3seC4vfff6+OHTvm+NUVPQgjJQ6QlimLFi3Sdl1N4sB6jmn3yZMnTTPUXXfdpeMbN26s4/Dckq9w4cKqdevWzvcBAwY4a0aIwzSnR48eOh1GaUEQEgeJI+x26EUcyDx8+HDdsOFPV8QkCBlxxMTEuNYDZA6PPMuXL9d6ook4ZIohJGAeisMIBtMkicN2swjWYrAeJHFZsmRxrjHCgBQtWtT5LrtXSLdw4ULJnqghiYPEEXYD9CMObMNi9V92AEShF3EgzryPsw4YWaCzycKgdKRoGXHgmcytXCxsYm1i2LBhjg9heR6sA+EgmynmNAbpsJaBcy4QLPRKXoQYfZw4ccLMnmjXJA4SR9iNz484/BSYBCEjDqR95513XB1COgeG8eYWajQRBwjB3sqV50KYMWNGtWTJkhCocLDMTIdtZBEcEjPjqlSpIlGJHkYFcZxc1lb9+XZWfq4Qg4v7P0+QhjZy5EjVokUL5zN27Ng4deIUpqTHaU5T8EMyjDby5s2rypYtq1599VV18eJF5xyD5MGP5URGjRqldZlTAezOSHq8vU3BiVGJMw9ZmWnsa7zRJQ9CbLWKYERlxu3du1einBAjBSyU1qtXTxUsWFDlzp1blStXzhl94ESol0C/qXPq1Kk6WWxxOlEiXUQFcSQSNiyWCBABHwRIHD7A8DYRIAL+CJA4/LFhDBEgAj4IkDh8gOFtIkAE/BEgcfhjwxgiQAR8ECBx+ADD20SACPgjQOLwx4YxRIAI+CBA4vABhreJABHwR4DE4Y8NY4gAEfBBgMThAwxvEwEi4I8AicMfG8YQASLggwCJwwcY3iYCRMAfARKHPzaMIQJEwAcBEocPMLxNBIiAPwIkDn9sGEMEiIAPAiQOH2B4mwgQAX8ESBz+2DCGCBABHwRIHD7A8DYRIAL+CJA4/LFhDBEgAj4IkDh8gOFtIkAE/BEgcfhjwxgiQAR8ECBx+ADD26EIwBkQPNKbnwULFqiNGzeq3377LTQD7yRZBEgcSbZqE/7BsmXL5vLzYfr8wHWJEiXU0qVLE77gRNYIcqxQoYLzadSoUSJbE4ziSRzBqIeosCIu4gB5wH/rTz/9FBXPE66R8OMiJAkfrxSlSBxsBWEjYBIHnEvD4dHnn38e4qqwf//+vjovXbqk4Mho586d6vTp077pvCLOnDmjdu3aFZYbRDh3Qjnw62o7gfbSbd5DXpQj7hojIQ7kPXDggPN8R48eVfAPmxQlKojjm9/+Vot/OMrPFWJw5PSlBGm7JnGYXtPhsT5Dhgz6rdy5c+eQ8nbs2KGaNWvmSpcmTRrVsGFDtXXrVld6dHSUJR+soXTq1Mnxq4o3P3yowmublx/V7du3K7iqNB09p0qVSlWuXFmZDq6lwFtuuUWXM2vWLMffqzh/btKkiRNnPht0iV0IN23a5KgCicJ/LOJldIIQumrXrq38PLmJHdEWRgVxfPD1H6rfoj38XCEGu4/858Q4vo0THUU6hUkcFy5cUHC0LHGmn1iU+eWXXzq+UyXeDtExQQ4iIAQzTfHixV3fJa5GjRoKpCWyYcMGZXp2l3RmCDeWphQoUEDrhm9WMy182Zrfva7Xr1+v/vrrL5U1a9ZY04JYkpKQOK6wM0YTkV0N4mjatKlasWKFgg9YvJmlU+XKlUthiC4CT/bFihXT8Vhc3LdvnzN9wMhE8iEN0kJs4gApjRkzRq1evVo99dRTOg/yzpw508mDKZDp5Br64K923bp1CmVKORitYPQjYhIH0hQqVEg9//zzqnfv3urll19WEyZMUG3bttX5c+TI4dzDfXwOHz6sPvzwQx2PERSmOJiy7NmzR3300UeqdevWatu2bVJkkghJHCSOsBuyOeKQjmiGeEPv3r3bpW/VqlW6U2FqAsfNIuhc5pRizZo1TpRNHH369JEsTli+fHmtEwQGMcuBTWvXrtV5sDZi2m7qM4kD117Tn7jWOBYvXqztqVSpkvr0009d5KkNSUIXJA4SR9jN2ex8JmHINaYU9psVXu0l3l4fgD5zTWDcuHGOLTZxLF++3GVj9+7dtc7SpUs7cfASL+VgVGFOYZCgfv36Oh4jJBGTOExCkXiEcREHRljZs2fX+sUO6MZ6i22/qTtar0kcJI6w265JHO3atXNGFxiKY3oinQXblefO/f+aCtYUJC6ucNiwYY4tNnFgHcEUTCNEV9GiRZ0orKvIPayZ2GKuV2ARU8QkDhCEl8RFHMiDdRysuZhEKPYgnDZtmpfqqL1H4iBxhN14TeIwF0eXLFmiOy06yZAhQ7TO2bNn67iMGTM6Q3hMV7w+58+fd/LZxDF58mStDxfYnZFOic4KmTNnjr6HuP3797vylCxZUsdjh0bEJA6/zj1p0iSd9+abb5asnuGpU6ecadPrr7/u7OSInTVr1vRMH603SRwkjrDbrh9xQEGtWrV057rxxhv1GY0jR4641jFGjBgRUh52VNq0aaPv28RRpkwZfaYCOydp06bVZcmZEUwXzJ2d9u3b6+nK9OnTdXp0ZHNbNhziwCKrEEC6dOnUli1bHOKDnRAs9uJ0KXaXTMERfcmHU7VJSUgcJI6w23NsxLFy5UrdSdBZZNoB5YMHD3bFlS1bVuEAWd26dZV0XKxLiNjEgUVVnEjFjkfKlCm1Ltgjh7SQd9CgQToONuTMmVNhKiOdF2GdOnVch7KkfMT5jThwkMwsV/RlypTJMRlnOXAPZzaqVq2qWrZs6ew0Zc6cWZeNqV1SEhIHiSPs9hwbcUDJnXfeqTsK1j2wmwHB6cmhQ4f6nrFAp6xYsaK2wyaO8ePHq9y5c2vd6KQ4NwGyMgXlgDzMnRrp5CijefPmIbsm4RAHyhg4cKBDXqIPoRDH5s2bPYlF0uLZsG2blCQqiGP3n2fVV7+e4ucKMTh57r/zEfFtuNguxdkNfHCU2xacjpR4hMeOHXMlASHgl7Xo3FjgxNmMefPmuUYNyGATBw5PYU3k3XffVb169VLYfTFHGq5ClFKYHs2YMUMNGDBAYacE6c2zG2Z6nPMQmw8dOmRGhVzDLpCEpMcWsAjsW7ZsmcLuDqZP/fr1UyA8TK1iYmIkWZIJo4I4kgzafJCwEPAijrAyMtE1Q4DEcc2gZkHhIkDiCBepxEtH4kg87FmyDwIkDh9gAnSbxBGgyqAp/yGAU59Y15DP2bNnCU3AECBxBKxCaA4RiAYESBzRUEu0kQgEDAESR8AqhOYQgWhAgMQRDbVEG4lAwBAgcQSsQmgOEYgGBEgc0VBLtJEIBAwBEkfAKoTmEIFoQIDEEQ21RBuJQMAQIHEErEJoDhGIBgRIHNFQS7SRCAQMARJHwCqE5hCBaECAxBENtUQbiUDAECBxBKxCaA4RiAYESBzRUEu0kQgEDAESR8AqhOYQgWhAgMQRDbVEG4lAwBAgcQSsQmgOEYgGBP4P1kZy+rsNqloAAAAASUVORK5CYII=;" parent="1" vertex="1">
          <mxGeometry x="530" y="70" width="203.43" height="110" as="geometry" />
        </mxCell>
        <mxCell id="W8nmrq4eX2epeuX94_2g-47" value="" style="endArrow=none;html=1;rounded=1;strokeWidth=10;strokeColor=#7EB2DD;" parent="1" edge="1">
          <mxGeometry width="50" height="50" relative="1" as="geometry">
            <mxPoint x="440" y="290" as="sourcePoint" />
            <mxPoint x="510" y="360" as="targetPoint" />
            <Array as="points">
              <mxPoint x="490" y="290" />
              <mxPoint x="510" y="320" />
              <mxPoint x="510" y="340" />
            </Array>
          </mxGeometry>
        </mxCell>
        <mxCell id="W8nmrq4eX2epeuX94_2g-48" value="" style="endArrow=none;html=1;rounded=1;strokeWidth=10;strokeColor=#7EB2DD;" parent="1" edge="1">
          <mxGeometry width="50" height="50" relative="1" as="geometry">
            <mxPoint x="315" y="289.66" as="sourcePoint" />
            <mxPoint x="500" y="240" as="targetPoint" />
            <Array as="points">
              <mxPoint x="340" y="290" />
              <mxPoint x="370" y="290" />
              <mxPoint x="470" y="290" />
              <mxPoint x="500" y="270" />
              <mxPoint x="500" y="250" />
            </Array>
          </mxGeometry>
        </mxCell>
        <mxCell id="W8nmrq4eX2epeuX94_2g-54" value="" style="endArrow=none;html=1;rounded=1;strokeWidth=10;strokeColor=#7EB2DD;entryX=0.5;entryY=0;entryDx=0;entryDy=0;exitX=0.64;exitY=0.96;exitDx=0;exitDy=0;exitPerimeter=0;" parent="1" edge="1">
          <mxGeometry width="50" height="50" relative="1" as="geometry">
            <mxPoint x="509.79999999999995" y="369.20000000000005" as="sourcePoint" />
            <mxPoint x="527" y="480" as="targetPoint" />
            <Array as="points">
              <mxPoint x="510" y="440" />
            </Array>
          </mxGeometry>
        </mxCell>
        <mxCell id="W8nmrq4eX2epeuX94_2g-57" value="" style="ellipse;whiteSpace=wrap;html=1;aspect=fixed;rounded=1;rotation=0;strokeWidth=3;" parent="1" vertex="1">
          <mxGeometry x="500" y="350" width="20" height="20" as="geometry" />
        </mxCell>
        <mxCell id="W8nmrq4eX2epeuX94_2g-71" value="" style="endArrow=none;html=1;rounded=1;strokeWidth=10;strokeColor=#7EB2DD;entryX=0;entryY=0.5;entryDx=0;entryDy=0;exitX=1;exitY=0.5;exitDx=0;exitDy=0;" parent="1" edge="1">
          <mxGeometry width="50" height="50" relative="1" as="geometry">
            <mxPoint x="345.99" y="460" as="sourcePoint" />
            <mxPoint x="520" y="490" as="targetPoint" />
            <Array as="points">
              <mxPoint x="440" y="490" />
              <mxPoint x="510" y="490" />
            </Array>
          </mxGeometry>
        </mxCell>
        <mxCell id="W8nmrq4eX2epeuX94_2g-73" value="" style="endArrow=none;html=1;rounded=1;strokeWidth=10;strokeColor=#7EB2DD;entryX=0;entryY=0.5;entryDx=0;entryDy=0;entryPerimeter=0;" parent="1" target="W8nmrq4eX2epeuX94_2g-87" edge="1">
          <mxGeometry width="50" height="50" relative="1" as="geometry">
            <mxPoint x="345.99" y="536.58" as="sourcePoint" />
            <mxPoint x="520" y="497" as="targetPoint" />
            <Array as="points">
              <mxPoint x="450" y="530" />
              <mxPoint x="490" y="510" />
            </Array>
          </mxGeometry>
        </mxCell>
        <mxCell id="W8nmrq4eX2epeuX94_2g-75" value="" style="endArrow=none;html=1;rounded=1;strokeWidth=10;strokeColor=#7EB2DD;exitX=1;exitY=0.5;exitDx=0;exitDy=0;entryX=0;entryY=0.5;entryDx=0;entryDy=0;" parent="1" edge="1">
          <mxGeometry width="50" height="50" relative="1" as="geometry">
            <mxPoint x="345.99" y="380" as="sourcePoint" />
            <mxPoint x="520" y="490" as="targetPoint" />
            <Array as="points">
              <mxPoint x="410" y="390" />
              <mxPoint x="450" y="420" />
            </Array>
          </mxGeometry>
        </mxCell>
        <mxCell id="W8nmrq4eX2epeuX94_2g-76" value="" style="ellipse;whiteSpace=wrap;html=1;aspect=fixed;rounded=1;rotation=0;strokeWidth=3;" parent="1" vertex="1">
          <mxGeometry x="325.99" y="370" width="20" height="20" as="geometry" />
        </mxCell>
        <mxCell id="W8nmrq4eX2epeuX94_2g-82" value="" style="ellipse;whiteSpace=wrap;html=1;aspect=fixed;rounded=1;rotation=0;strokeWidth=3;" parent="1" vertex="1">
          <mxGeometry x="325.99" y="450" width="20" height="20" as="geometry" />
        </mxCell>
        <mxCell id="W8nmrq4eX2epeuX94_2g-83" value="" style="ellipse;whiteSpace=wrap;html=1;aspect=fixed;rounded=1;rotation=0;strokeWidth=3;" parent="1" vertex="1">
          <mxGeometry x="325.99" y="527" width="20" height="20" as="geometry" />
        </mxCell>
        <mxCell id="W8nmrq4eX2epeuX94_2g-85" value="" style="endArrow=none;html=1;rounded=1;strokeWidth=10;strokeColor=#7EB2DD;exitX=1;exitY=0.5;exitDx=0;exitDy=0;" parent="1" edge="1">
          <mxGeometry width="50" height="50" relative="1" as="geometry">
            <mxPoint x="539.9999999999857" y="490" as="sourcePoint" />
            <mxPoint x="611.5700000000002" y="490.23574560272345" as="targetPoint" />
          </mxGeometry>
        </mxCell>
        <mxCell id="W8nmrq4eX2epeuX94_2g-86" value="" style="shape=image;verticalLabelPosition=bottom;labelBackgroundColor=default;verticalAlign=top;aspect=fixed;imageAspect=0;image=data:image/png,iVBORw0KGgoAAAANSUhEUgAAAFUAAAB6CAYAAADODx+5AAAJQ0lEQVR4Ae2daegNXxjHr51E1pCsL0j2KNkjyxsk+5YtSRGSskbJlrywbwnZyb7lhSWy75GiyJIQIfvu+fed/s8457hzZ7n3/O7v3vucmmbunPM8c85nnjnbnGdujCSknEAs5RpFIQlUC0YgUAWqBQIWVIqlClQLBCyoFEsVqBYIWFAplipQLRCwoNLXUl+/fk3r16+nhQsX5vtt0aJFdO3aNQuYwqlMCPX8+fNUqVIlisViGbMVLVqUTp06FY5CilN7Qv369SvVrl07Y2CqN75ChQr06NGjFKMKrs4TKqxUzWimHTdq1Ig+ffoUnEQKU3pC3bp1qwb12bNn9ObNm3y5vXz5UssrG0C/fv3oz58/KcQVTJUn1M2bN2sZ/f37dzCNaUgFcAzS3M+fPz/Pc5T1UAsWLEiHDx/OU7BZDxWWW6pUKbp7926egc0JqABbt25devfuXZ6AzRmoANu1a1f69euXdbA5BRVgZ8yYIVCDEEjU+gOkuhUoUIB27twZRG3kNDlnqQBcokQJq3MEOQkVYGvUqEGvXr2KbI2JBHMWKsB27NiRfv78mYhPpLichgqwEyZMiAQukVDOQwVYzBenMgjUWIyKFy9Oly5dShlXgfp/l6tKlSqEmbhUBIGq9GNbtmxJ3759S5qrQFWgon4dNmyYQAWBMCMqgPPbVq5cmRRYsdQ4kPHy8OnTp5HBZgVUlB4tuJ8Fhok/cOCAQN29e3dKoe7Zs0eggsCPHz/o8+fPkTbz5aFAjWxTfwUxB6BWDwL1L5vIRwI1MjpvQYHqzSZyjECNjM5bUKB6s4kcI1Ajo/MWFKjebCLHWIGK1Rvbtm1zV0v3799f67edPHmSLl68mLXb8ePHtfIOGTLEZYFX2u/fvw98w5yx/44dO6hMmTKaUrUjLMcxwkLi/fv3BwIbO3LkCGFlnIDznxIsVKhQoKXvsUxdgp4uI2jQoIGvtcbSlblMvu6dO3cSghWocSap/W74vn37BKofpLDx6CUlCmKpESxVoEaA5me5AjUg1EGDBmlPdJs2bTy7mQJVoPp3wP0ezajx1iy1Z8+e7nh3wYIFjvk3a9aM4P13+fJlWrZsmfZIlC1bliZNmkQHDx6kq1ev0oULF2jTpk3UpUsXLR0XtHv37q5+eGVjhAL9W7ZscfSfOHGCxowZ45xnGXPfqlUrWr58OZ09e9ZZDX369GlavHgxNWzYMO41x40b515z7NixTpoePXo4eYbH9fTp0534Q4cOaY8/ysye47NmzdJ0h3r8V61a5SrGqg9A+P79u3sOheZCAtzbt2/dOPNg+/btVKxYMTc95JYsWaIlGzp0qPMGVDtJ5DiTFS5cWJPFAgfcMK8Aj0QYAtb0cx6xv3LliisCw5g5c6b7Gwe7du3Sfsf7AfdRVWdkqFAOZWpgqI0bN6YvX764UZg2u3HjBj1+/Ng9h4MVK1ZomTGhqjdMEySiqVOnarLxluLgumaYPHmyJqdChRGY7qBYL+AXUgoVF8NKjREjRtDIkSNpypQpToYxTcYB79lbtGjhnMfEjGrtKECdOnXcQppQnz9/TmhlS5YsSQMHDiS4w3PAxxvY0uFYpsLAkpzmzZs71USnTp00p7MPHz4QqiW2LBUqdEMP8jh48GBC1TBq1CiCDtOHdeLEic55xLVv397VB71JWSoeYc4c78uVK6cV0KxnK1asyFycvWpxJlTcKNaL/erVqzXZdu3aOfHTpk3TzqPaUOVmz56txQ8YMMCNN6GiDVBl+dhaQ6VaGXKJRoQvynsUVA1PnjxxGgxU+ryhPuaAu8qyJlR4iHAc9nAlV8Po0aOdeMz3qqFatWqaXNu2bdVomjdvnhuvQkWV5bXmKs+gli5d2s0cF75bt25aAfx+HDt2zNVhQsVjz3qxh7eIGrh+PHr0qHra8YNS5erVq6fFo/7leBXqvXv33PMcz/s8geq15hP1ixrOnDlDa9eu9dzg/cEZN6FWr17djUOaPn36qKqd7hXOmx56VatW1eRat26tyXF3ELIqVLT+nBdzn1aoqDPVx3vp0qWeGUXG1a6RCRUFUQtnxnfo0MGJRz9RDagmVDk0oGrA+yWODwrVvKF8bdaj7iM3VF6WCuWwTg5osblB4QsXKVKEMJDAd1iaNm3qFtCE9uDBA8Kji74l+r0fP35ktU6LDndH6MT3UNQbef/+fapVq5YT16RJE8KKPQ6oN3HjOS9BoWJQoQYMSNCrQbtSs2ZNVx/0WoGKDGDZIgcU+Pr1684o5dy5c9oHYRJBZTdxtc/LOufOnasVBIU0Qzw3yDlz5mhyQaGWL1/e0/tvw4YNmk4rUHG3+vbtq8EzC4zfgFa/fn03Q6aljh8/XrNA1oEhKFspWxwaNXMoyel5v27dun+GuEGh4jpmX5X1JgUVdRw3OmvWrHFhcMHMfeXKlQl9RIy/Hz586GwAAqsaPny49hhC1oSKaqJz586EHgK+I3Xz5k1nGOnV7UE1gaEz+s/4fAe6c7dv36aNGzf+UwVxXtHH5TLhmM977dE9Q68D8wssB48VNX0oS1UFbRzHg2rjOrZ1CtSA86lhboRAFajpm6TOWEvFmB39Pt7Muc8wBUtn2nz1+KcTRCqvLVCzvU5NpbWkU5dYqgVLNWfNeOTFe1n2EwE6Ro2JQsycKE7nY5UJ18b7L7+vV8TMd9qZULB05hFfaPcLMbzmNZ0m0pnp/HxtTBKpb3W94LofUdi7dy/17t3b7ZibE7OY6sOMerZuvXr10maisGwfgxS8CkfZw3wt2IVqUs+kb1KbeY/y24oflZkRgSpfpjBtIvRvsdTQyPwFBKo/o9ApBGpoZP4CAtWfUegUAjU0Mn8BgerPKHQKgRoamb+AQPVnFDqFQA2NzF9AoPozCp1CoIZG5i8gUP0ZhU4hUEMj8xcQqP6MQqdIC1R4vUX94GsmyOXJR2nNv/jMz++ObOTN7zspiR4Fz9cpWLtvI7OZovPWrVuJuCWM84QK5wbTIy9TgCSbT/jCqo4iCQnGifSEirRw7YHXRrKZzCR5+DHAiS2ZkBAqFL948cJxMYfjLpzAsnWDkwUcjuG9nWzwhZrsBXJRXqBauOsCVaBaIGBBpViqQLVAwIJKsVSBaoGABZViqQLVAgELKsVSBaoFAhZUiqUKVAsELKgUS7UA9T+xW9ZrQsX1sQAAAABJRU5ErkJggg==;" parent="1" vertex="1">
          <mxGeometry x="611.57" y="454.5" width="49.47" height="71" as="geometry" />
        </mxCell>
        <mxCell id="W8nmrq4eX2epeuX94_2g-90" value="&lt;b&gt;&lt;font style=&quot;font-size: 16px;&quot; face=&quot;Georgia&quot;&gt;Falco&lt;/font&gt;&lt;/b&gt;" style="text;html=1;align=center;verticalAlign=middle;resizable=0;points=[];autosize=1;strokeColor=none;fillColor=none;" parent="1" vertex="1">
          <mxGeometry x="300.99" y="340" width="70" height="30" as="geometry" />
        </mxCell>
        <mxCell id="W8nmrq4eX2epeuX94_2g-91" value="&lt;font size=&quot;1&quot; face=&quot;Georgia&quot;&gt;&lt;b style=&quot;font-size: 16px;&quot;&gt;Fastp&lt;/b&gt;&lt;/font&gt;" style="text;html=1;align=center;verticalAlign=middle;resizable=0;points=[];autosize=1;strokeColor=none;fillColor=none;" parent="1" vertex="1">
          <mxGeometry x="300.99" y="420" width="70" height="30" as="geometry" />
        </mxCell>
        <mxCell id="W8nmrq4eX2epeuX94_2g-92" value="&lt;font size=&quot;1&quot; face=&quot;Georgia&quot;&gt;&lt;b style=&quot;font-size: 16px;&quot;&gt;Fastq screen&lt;/b&gt;&lt;/font&gt;" style="text;html=1;align=center;verticalAlign=middle;resizable=0;points=[];autosize=1;strokeColor=none;fillColor=none;" parent="1" vertex="1">
          <mxGeometry x="270.99" y="497" width="130" height="30" as="geometry" />
        </mxCell>
        <mxCell id="W8nmrq4eX2epeuX94_2g-93" value="&lt;font size=&quot;1&quot; face=&quot;Georgia&quot;&gt;&lt;b style=&quot;font-size: 16px;&quot;&gt;Kraken2&lt;/b&gt;&lt;/font&gt;" style="text;html=1;align=center;verticalAlign=middle;resizable=0;points=[];autosize=1;strokeColor=none;fillColor=none;" parent="1" vertex="1">
          <mxGeometry x="290.99" y="572" width="90" height="30" as="geometry" />
        </mxCell>
        <mxCell id="W8nmrq4eX2epeuX94_2g-94" value="&lt;b style=&quot;font-size: 16px;&quot;&gt;&lt;font style=&quot;font-size: 16px;&quot; face=&quot;Georgia&quot;&gt;Illumina&amp;nbsp;&lt;/font&gt;&lt;/b&gt;&lt;div style=&quot;font-size: 16px;&quot;&gt;&lt;b style=&quot;&quot;&gt;&lt;font style=&quot;font-size: 16px;&quot; face=&quot;Georgia&quot;&gt;interop&lt;/font&gt;&lt;/b&gt;&lt;/div&gt;" style="text;html=1;align=center;verticalAlign=middle;resizable=0;points=[];autosize=1;strokeColor=none;fillColor=none;" parent="1" vertex="1">
          <mxGeometry x="530" y="330" width="100" height="50" as="geometry" />
        </mxCell>
        <mxCell id="W8nmrq4eX2epeuX94_2g-95" value="" style="endArrow=none;html=1;rounded=1;strokeWidth=10;strokeColor=#FF9914;" parent="1" edge="1">
          <mxGeometry width="50" height="50" relative="1" as="geometry">
            <mxPoint x="200" y="647" as="sourcePoint" />
            <mxPoint x="250" y="687" as="targetPoint" />
            <Array as="points">
              <mxPoint x="210" y="667" />
              <mxPoint x="220" y="677" />
              <mxPoint x="240" y="687" />
              <mxPoint x="250" y="687" />
              <mxPoint x="320" y="687" />
            </Array>
          </mxGeometry>
        </mxCell>
        <mxCell id="W8nmrq4eX2epeuX94_2g-96" value="" style="shape=image;verticalLabelPosition=bottom;labelBackgroundColor=default;verticalAlign=top;aspect=fixed;imageAspect=0;image=data:image/png,iVBORw0KGgoAAAANSUhEUgAAAGcAAABrCAYAAABqg5yCAAALvElEQVR4Ae2dd6jUyhfH7b1X7NjbtYsNu6LYsSLotaAoYkERK6Ii/iGoTyxP7L33giiiPrtyi72LCqJXfzbE67Pr+fENzDKZTLJJNsnL6gwM2SQzk5nzybQzk7MZSLnQSiBDkDn79esX7dixg0aPHk19+/aNCz9u3Dh6+vRpkGKKPCswOD9+/KDOnTtThgwZ4s5XqFCB0tLSIkIL6kdgcNauXRt3UPgXqU6dOvT+/fuguGjPCQzO4MGDI3BKlSpFc+bMCbVv3LhxJL8MUqtWrejz58+BAQoMTs+ePSOFRX8TdmdW07t3707fv38PJPsKjomYzeCgFg0aNIgwuPHbKTgmEraCA0AzZswwiendZQXHRJbR4ADQokWLTGJ7c1nBMZGjHTgZM2akjRs3mqQQ+2XP4Hz48IEOHjxI8+fPp3nz5hl8zZo1IwOCWrVqGe7L4vh5beHChXTz5k1TCdqBg9qTNWtWOnbsmGk6sdzwBM6VK1eobNmyEeEj0/Hgc+TIQSdPnpTKzy4clDNXrlx08eJFaTqxXIwZDkYtVapUiQsYshcmX758lJqaapChEzhIt0iRInT37l1DOrFciBnOvXv3dGAqV65M9erVM3gAhBoEvlq1aob7sjh+XMOzRUjFixenhw8f6uToFA7SLFOmjKd6uJjhnD17VlfYt2/f6goZthPM8EU4OC9fvrxOf+YGDtJJSEigd+/eeVJsBYfrHzFQYYJ1CweAmjRpQh8/fowZkILDwYFgmf4sFjhIp2vXrjGreRQcAQ4EC/3Z6tWrpc0f7tv1iYmJMal5FBwTYTdr1sw2BCtY06ZNc928KTgmcKwE7vQeJrxunIITAJxMmTLRtq1biaDJduAVnADgoKblzZuXvn75ouBYNSFm8xynTZWb8GnPnys4fsDJli0bTZkyhVauXGnbDx8+XDeoUHCsyBBpewDcvPWI41R/dvv2bQUnCg/d7VibtdKlS9vWnyk4OtFHP4kVDmoQ1qbs6BAVnOg8dCG8gANAdvRnCo5O9NFPvIIDQNH0ZwpOdB66EF7CAaCBAwea6s8UHJ3oo594DQeAtm3bJn2wgiMVi/nFnz9/apsyIFSv/OTJk6UPVHCkYrG+uHPnTmrbti01bdrUtYe+jMHNnz+/tpKK1VTeY17EwuCIcAULFqQSJUpQy5Ytac3q1fQDW3tN9G2e69bEtXhrMcXvXey44QXv9nfHjh3p86dPUkCewzHbahS/GOQ59woOoE6YMCEYOCdOnJCX5je76iWcnDlz0sf0dAMgz2uOguNuoJGclKTgeFWBvaw5aNpO//OPgqPgeCWBEKejao6C40wCx48fpxEjRhDG5+3bt6eGDRvqxvvYE92gQYPf3vOTULdzHD5eTH3Oly9fNKMOfILqt7uRmUxuMcEZNWqUrobIHqCuuYflGs7z588pc+bMjuEUKFBA0yVBnwSPTRIKoBygazi7d++2JVR8iATjD7du3ZJu4sbah4LjMZw1a9ZEFSpqyZ07dyxHF2GE07p1a8P3qdWrV49aXq9fMtc1xw6c2bNnS8FgcQvfvMD369cv8EJHE6Jso3m3bt0Cz6evcC5cuKCDg29F27VrF3gho8EQ7/8RcMR1nDdv3oQeDED9tnCwwQ5bVOHFfVywS8Du4YilXPbWYlN3mzZtaMyYMdrW1n379tGpU6coJSWFkpOTte/6ly1bRv379yeo01k8syPMbaFZRTpJSUlaOvhW9cCBA1r6mAZg1TN37tyRtLBVFvk6evSorsbjZMOGDbq8I1zJkiUjcVk+cA1mVo4cOUKXLl2i/fv309ixYwn9L8L06dPHkE6ePHkM6SCs581aixYtDAUzuwBjeKxQ0DDYda9evaJevXpF4rI0cMTQfP369aa7X8RnACCL7/SzdOxTY3FxRP+JF1Dmnj17Rs2bN6fDhw8bbmOJmk+H/Y5LOCgdwHbo0MFQKAzbnTiv4HTq1EnLk9WzAe7BgweGIIHBgZ0ANEXwUO/w7tu3b5F7uI/mhr0lqDnp6em0d+9emjhxInXp0oUwpAWAIUOGSN+4GzduROKzdPCG8g7PgbktNJkYccGW6IIFC7R5F8LxcPbs2aPlT0wD4dB/snKxI760xnOhjX7x4gX/WO33y5cvafPmzZp5GVg0MXOBwWFCwvHRo0e6/KAA/H3+N3aoYCcKf038jYmv6CpWrBiJA5szokNTIqbDzitVqqQZpmDn7Oh0QIC+SnSPHz+mwoULR54Ng0WbNm0Sg2nnoYfDBIMjOny8ldBw421nVnPRl4iuR48eOgF8wq4Vzp05c0brC2Clw66qyCkc1DjRjRw5MpIvVjZY80DrIbq4gIMOFcJ0YpJx6NChOiHASpWZg2CuXr1K69atI7ztbATFhMeOTuHIBhJVq1bV5YulLQsbejj4OsyNQ1/FCo4j7OzYNSkMDQXsC/Dx8dspHFl/g6mBmC7OZZtdQg0Hnb7ovn79qhkDh6AAAH4rvj4WnAgHAoC2e+bMmdqAQxyUCNE1kyfFihXTCdIpnCdPnojJEqz9yuBgECS6UMNZvny5mF8SmysUdO7cuYZwMji8UDBIqF+/vtbvYGQmG8ryJpQRd+rUqYbnWOnWzp07ZwiPrb18PvAbeREn5ogYajiYxYtONLOFgmHoLDoRTrROHwb6RDd9+nSdIMePHy8GoWHDhunC8IKH9UTRyZZUYFpF5kINZ9WqVYY8Q1UDIBAChthbtmwxhMEFEc758+cJGnP0JWjeeCFicVAmeDGN3r17G56Fuc+sWbMiTSyvocBygsxs8eLFi6lRo0ZUrlw5bQBiZr091HDwNZjMocPG6IYNP2X9hyjYa9eu6ZLCRBBrSrDdifREh74NQ1weYtGiRQ0TaDEeLBnycVasWCEGkZ6zsvA3zeBcR1mErw1sbce1s57jZBK6a9cuPr+G3xCuzG5zNDiGhLgL+C5HNh+B0GX9DhdVMzPJw4GWAIpaKwflKRSiopPBwaci3zEn8gvO6dOnNS0BIMFfvnxZ97bxhcuSJQuh7X/9+rUu72gKli5dqpkiwaopS4sdoaXm0xkwYICm+MSyOPRvMgcdF14G2X8T8Glh7QkTX4yw2PPY8dChQ7rnIl727Nm1USIUs7zDaA4vAbQEdhWffy9bZgADUJ7VHL6gdn+jX6hRowbBfBbachTYblwxHOJChQ9tA7Tl2DuHAQGEJIb18hxlQN6xJAH1Ev+8aHCw9w0vqVhj2Pl/CsdLIYUxLRkcaEYwVMf61o3r103B/Oc1J4wC9TJPMjisVtg5qprj4Ye7IlgFx0fhisJ2eq7ghBgO1pfYEgiO2txLGC5bNW+2mrXt27f7OuJx+kbGa3hf7K3dv39fwfGghvoCB5MsfhUyXt/coPNdqFAh3UvtGxxsEsTELugCxuvzoIjFhg8+/77BQe2BMnLJkiXaDByzcWRAXAUM+7+AePXPIvyXbfgfHsgCStTatWtrO4qg2Va2b3jFVoC/ebs2kyZNkj5ZwZGKxf+LCo7/Mnb9BAXHtej8j6jg+C9j109QcFyLzv+ICo7/Mnb9BBEONn2IPjUlJbh5jqwk8faHerIyuLnmxvbNi7Q0y8U1UQlqS/FplXkFR/7pOq8ZwG9M1q3seYpgcK7gWL15Fvec1hx8jigDYHVNwbEAYHXLLhyoebCl69O//yo4VgL18h6vcR6UmEgpyckGfyU1ldLx3aiDBTY+rKo5LomJozVeqF79VnAUHJcSCHE0VXMUnNgkIM5zzBbbvFrksptO3bp1ta+n7YZ3Go5fbNPWc1x2+lb9U8x9Dr7ZFydcf9r5X/gH3TDCgT4pISHhjwWEDfT37t4NJxw0iliOhVXcP63GwMjQZhiD8KHWIM2YmzXWY2HzB/4BBJ8VOvmj01CEXbGCVjr0+/bupf+9fOkbGE/hMEhxefTpzY+1RnlWc+ISCsu0gsMkEcKjghNCKCxLCg6TRAiPCk4IobAsKThMEiE8KjghhMKypOAwSYTwqOCEEArLUkjh/B9YqOFP17F6GAAAAABJRU5ErkJggg==;" parent="1" vertex="1">
          <mxGeometry x="171.13" y="717" width="57.75" height="60" as="geometry" />
        </mxCell>
        <mxCell id="W8nmrq4eX2epeuX94_2g-98" value="" style="endArrow=none;html=1;rounded=1;strokeWidth=10;strokeColor=#7EB2DD;entryX=0;entryY=0.5;entryDx=0;entryDy=0;" parent="1" target="W8nmrq4eX2epeuX94_2g-100" edge="1">
          <mxGeometry width="50" height="50" relative="1" as="geometry">
            <mxPoint x="340" y="686.8" as="sourcePoint" />
            <mxPoint x="410" y="687" as="targetPoint" />
          </mxGeometry>
        </mxCell>
        <mxCell id="W8nmrq4eX2epeuX94_2g-99" value="" style="ellipse;whiteSpace=wrap;html=1;aspect=fixed;rounded=1;rotation=0;strokeWidth=3;" parent="1" vertex="1">
          <mxGeometry x="320" y="677" width="20" height="20" as="geometry" />
        </mxCell>
        <mxCell id="W8nmrq4eX2epeuX94_2g-100" value="" style="shape=image;verticalLabelPosition=bottom;labelBackgroundColor=default;verticalAlign=top;aspect=fixed;imageAspect=0;image=data:image/png,iVBORw0KGgoAAAANSUhEUgAAAFMAAABuCAYAAABbVi9zAAAIzElEQVR4Ae2cd6jVPhTHnws3iBvFiYoLXP+IA8EBDsQ9URS34h64ELeI8w/xD8WN+hQHKiqi4AARxYm4RZyg4sK9PT+++XlCbuy7bW/77nu99xwIbdMkTT49GU1ymkEioRHICC0lSYgEZohKIDAFZogEQkzKs2beuHGDNm/eTOvWrcv1bvfu3fTt27cQMXlLyhPMOXPmUN68eSkjIyMyrkOHDvTr1y9vFEIK5Qrz0KFDkQFov+xp06aFhMlbMq4w+/TpE1mYgIumKVniCrNJkyYa5rhx4+jp06e51q1evVrnlbW0cOHCdPny5aTwdIXZqFEjnUF0PrlZzpw5o/PKMHGsXLkyvXz5MtuznhYwAbRZs2b0/fv3bAWaNjABdPTo0QLTK4GsqrlZ5bOzqUorzQTUAgUKEKBnh6QdTAAtV66cGpGEDTQtYQIoRimfP38OlWfawgTQAQMGCMysCHjpgADRdKtWrcoqOd/+aa2ZgJovXz46evSob3BOEdIeJoCWLFmS7t+/78THl5/A/Fvt69SpQ+/fv/cFzw4sMI02tGvXrvTnzx+bkedrgWnARJVfuHChZ3h2QIFpwcyTJw/t2bPH5uTpWmBaMKGdxYsXJ6x5+RWB6QATQGvWrEnv3r3zxVNgZgETQIcMGZK+MC9cuBDzdQMgQRy004+klGb++PGDqlSpEgigCb9q1ap+WLrvNYrSGhBKjnHi27dv6c2bNwm5pUuX6peR9jB9qZJD4P379wtMBy4JeQnMhLA5RxKYzlwS8hWYCWFzjiQwnbkk5CswE8LmHElgOnNJyDdUmA8fPqRt27bp3cGVKlXS465hw4bRrVu3UtpNmTJFl7dUqVKaw9atW+nevXtxX5D+nMS2ZcDCfJ75SSXnsd/3/fr1o48fPzpC1TC7d+8uED1OjLRp08Zxi7eCeeTIEQHpESTX1B07dvyjnQpm//79BaZPmB07dnSGaW61ZvJyjG0rbR7Vq1d3hlm3bl3RTJ+aWb58eYFpa1ii1wLTp/bFAy0wBWb8jiCe9mTnPdHMVNDM2rVrU69evZQrXbp0Sowcckwzp0+frocRLVu21DCPHz9ODx48cHSdO3fW4bKzuiaadq6DiRmorAQTCokWNBnxci1MbIOG9poOm0+TASXRZ7jCbNCgAV26dEm5oUOH0uLFi9Vu2k+fPhEsZvPnz0+9e/dW1RJ2iNiQX6tWrZhCV6tWjU6cOEE/f/5Uxp+zZs2iGTNmaAU0qzlrJiDGKxTmFdesWaNsd5Duly9f1LZpTDZgxxri9uzZU+e9RYsWOj3st+QyFSlSRPl36dJF+3Xq1Ik2bdpEX79+pdevX9PkyZNVmEmTJtGLFy8IZT9w4ACVKVNGp4nnucJs3ry5LvSzZ8/0OZ/s27ePfv/+zZfqeOXKFT0HCnNkpwnUx48f6zhOMO/cuUM3b96ka9eu0YYNG8j+vN27d6+Oj3lX06AUhULhTLtITELwy9m+fbuOW6xYMeUPRWFxKqfT/szMzEydpm+YyPCgQYOoR48eMVuT8SBYyJ47d47zo7Vz1KhR2u/YsWOEqopeHG+dxQkm3+MjNM/ULmgIZMWKFap24BcXqBGzZ8+mEiVK/AMTv5TwChPaiM4OGmnKypUrCXl99OiR8sY+JtRMTteXZu7atUtHZM3CPh6YyiHB8ePH62e3bdtW+W3ZskX71a9fX8ffuXOn9jdhHj58mJYsWUL420Lfvn3p1KlTOhw0njOOHh8Crcf/QgALVZ/v42hqZvv27fU9N82cP3++CotaxQLbdAa3du1a9iZzCccXzHnz5ukMXb9+XSX46tUr7Td8+HD9EB7GmDAKFiyow86dO1eHNWGaMHCOAj1//lyHZWATJ07UfnyCF4u/xCBOPJjmi3Sq5uaogZuPs2fP6ryjNrCY/YMvmDNnztQJoi2DPHnyRPuNHDmSn6GqCQp08OBB7QfbGoa1fPly7R8PJsKfP39eh8WcIaeBpgXpnD59WnVAHIgXwMwmBlYTHO/kyZMclJxgduvWTYfl5ggdKMdHdWdJKkzzLQ4ePFhlCCbJ5v5whtmwYUOCVsBCjDOOLyW0lxAUrFChQuqe/dVUtGhRvai1ceNGFQZtOwsrQo0aNWI6q0jBbNy4se7tAQNV7OrVq1xGdWSYaPcg6E0x9EDHhmEIC3p1hoyeHtqC9hU/XVm/fj0HIwy9EA7geKSBHh/hsU/TlEjBRKHM9hEFQU9s/g6HYTZt2pQ+fPhgllWf419K0D6Gefv2bX3PPAHksmXL6nAmZIS7ePEioZNjSSpMDDPQM8Nh1ywXBgWHnzlcqVixog5rV0OEQwc2duxYNdhFWpwuD2WQNqoxel6MDBYtWkQTJkwgp/UoDMzbtWuntHLBggWEDgnx7L+AYc0fnSF6/IEDBxI6QYwq+NncpFSoUEH7mS+jdevWyh81jMuOdpLj86Af91w7IE5Aju5zqAIzFeYzU1HTRTNFM93br5zQfNFM0cyIaaY5w5MTVSaKz8RY1Ra1Cw6D1SgWKCfzDDNIWxRMfH3kZMai+OypU6faLP83RMVss/1JGMUCJivP+LzFH25tUZoJT8wT8uJUsjIVxedgMtqcPDGBapjwxHrHmDFjqF69eoSJWThzxhxLFq1atUppZy5NYOmCOWCRDwYUd+/eNfnFnMfAjLnz9yJq9uZOZfDjZ9oB4UcAfkRgWrQEpgUkyKXADELPiiswLSBBLgVmEHpWXIFpAQlyKTCD0LPiCkwLSJBLgRmEnhVXYFpAglwKzCD0rLgC0wIS5FJgBqFnxRWYFpAglwIzCD0rrsC0gAS5TBpM/KgTVgep7MxNttk6ORzFNZsgeQ4dJqy5gmQoynGx3uVHXJctsLU5ykCC5H3ZsmV+WLr/wBmb7k3zjiCZi1JcbL1muyCvRF01EwnBgAnWENhLPmLEiJR22F8Pqza23PAKEuE8wfSTYDqHFZghvn2BKTBDJBBiUqKZAjNEAiEmJZopMEMkEGJSopkhwvwPio0mYCpNwvQAAAAASUVORK5CYII=;" parent="1" vertex="1">
          <mxGeometry x="420.99" y="657" width="45.27" height="60" as="geometry" />
        </mxCell>
        <mxCell id="W8nmrq4eX2epeuX94_2g-101" value="&lt;font size=&quot;1&quot; face=&quot;Georgia&quot;&gt;&lt;b style=&quot;font-size: 16px;&quot;&gt;Generate md5 sum&lt;/b&gt;&lt;/font&gt;" style="text;html=1;align=center;verticalAlign=middle;resizable=0;points=[];autosize=1;strokeColor=none;fillColor=none;" parent="1" vertex="1">
          <mxGeometry x="240.99" y="647" width="180" height="30" as="geometry" />
        </mxCell>
        <mxCell id="sNyXDE5Iikvhn60iPtZ3-1" value="&lt;font face=&quot;Georgia&quot;&gt;&lt;span style=&quot;font-size: 16px;&quot;&gt;&lt;b&gt;Multiqc&lt;/b&gt;&lt;/span&gt;&lt;/font&gt;" style="text;html=1;align=center;verticalAlign=middle;resizable=0;points=[];autosize=1;strokeColor=none;fillColor=none;" parent="1" vertex="1">
          <mxGeometry x="520" y="445" width="90" height="30" as="geometry" />
        </mxCell>
        <mxCell id="zXU1iS0vnF0tCq2ebF5h-1" value="" style="shape=image;verticalLabelPosition=bottom;labelBackgroundColor=default;verticalAlign=top;aspect=fixed;imageAspect=0;image=data:image/png,iVBORw0KGgoAAAANSUhEUgAAAEIAAABSCAYAAADgggJzAAAOVUlEQVR4Ae2cCbRN1R/HnzlDVGSMkDLPyhwyE4tMyZTMoiJjIk1ahswhc6bMU0SKZYhMy0zJ0CBKZoUQ+78+O7+z9t3n3PPu9d76v4G91m+d8+4+Z+9zvvu3f/N5Eep+0whE3MfhPwQiBeLWrVvq77//VpcvX1aXLl3SdPHiReVFFy5cUDadP39eedG5c+fU2bNnPenMmTPKpj///FMJ8Sz//vtvtK6hLxDXrl1Tu3btUuPHj1cfffSRpg8++EANHDjQRW+//bbq27dvAPXp00f17NlTde/ePYC6deumunbtql599dUA6tSpk2rXrp1q27ZtALVu3Vq1bNlSNW/eXB95lh9++CFawQgKxPXr19WqVatUtmzZVERERKyihAkTasAAA46NjhYUiD/++EPVqVNHA5A4cWKVIUMGlTFjRpUpUyZNnNtEX+bMmQMoS5YsKmvWrC4C4OzZs7soZ86cCnriiSdc9OijjyqehYVJkiSJ6tWrl/rll1+iBYygQJw4cULly5dPT8rLjB49Wn366aeaJk6cqGyaNGmSmj59uovmzJmjFi1a5KLly5er1atXq6+++iqA1q1bpzZt2qS+/fbbANq2bZvq0aOHXhDh0BQpUqgPP/xQ/f777+r27dtRYoygQPz6668qb968GoiCBQsq5EVMt08++cS1VR955BE1ZswYhfCNSgsKBByRP39+DUSBAgXU1atXozJPtNw7btw4FxBwBxz72Wefac12txP5AgEATMTxypUrdztHtN2H9nr88cf1M8n2kOOTTz6pt9/dLpgvEGyJ2ATEhAkTggLBcxYvXlytWbNG/fPPP2GD7wtEoUKFHCD++uuvsAeP7hsQ1mga4QKvY+XKldWWLVvUjRs3wpo+KBC//fabKly4sJ4UWYE1F9MNIHLkyOELBOA0aNBA7dmzR928eTPkR/YFomjRog5HxAYgUNmhAIHB1aZNG3X48OGQbQxfIIoVK+YAgZ8R0w1bBWPLa0vYv2F4vfnmmwozIBQbwxcIhA8ToDVwpmK6TZ48OWQgeO7kyZOr999/XztrkYHhC8TTTz+tgUBGxAYgpkyZEhYQgPHwww+rUaNGaW/ZbyGDAnHy5En1zDPPOEDgSsd0mzp1qvY/7G0Q2d/4P9OmTfO1hXyBKFmypANEVE3Y6AARIEKVETY4OHELFy5UeNVezReIUqVKaSBwvgiUxHS7W44QUIoUKaI2bNjgGcfwBaJMmTIOEESHYrrhT+TKlUs/k7xcuEeCPETc7OYLRNmyZR0gTp8+bd/7f/9748aNqm7dutrxwufwimewBfA7TOI6iWOw3Qkz2i0oEKdOnVLlypVzgCBQE9ONlcSXwOeAMLCwLUxCKMI5JuG14q7DPSVKlAgfiGeffVbfTFyC4EdcbQBIlAwgMBLD5ogKFSo4QKBO42ojhCCxV9yGsIGoWLGiAwROWFxtxCgECBzJsIGoVKmSAwQRq7jaTCAILYQFBDIB3559lSdPHu28xFUgCNQIRwTzm4JqDYCoUqWKA8TPP/8cV3HQESsBIpjfFAAELLN582a1YsUKrX6wxOCIxx57TGHVkfAR+vLLL9XKlStd9MUXXyhC9TYtXbrUFdInzI/ZO3/+fBeRBpg1a5aLUIt22gCViSqVdIN5JMI9bNgw9dBDD+l3IT/zzjvvqEGDBimi4tgmpA81EGSL9u7dq1577TX13HPP6dgf8crUqVPrmx944AHF3xgjQjhk6GSbcN1RUTYBKvvTJsZllWxiOz711FMuwrK0kz8EazCw7EQSC0jSKX369CpRokT6XTjyXg8++KBORKEQCAprINgGhLeSJUumL4YL7iXSkXHierBa0qRJ76mXdy00GaxXXnnl3gaBHYCOrV+//n0gggFBthlztFWrVg699NJLSlxzF2vFErmC8O7Xr58aPHiwQ0S0U6ZM6b/YAPHCCy+4LkqVKpV6/fXXdUicsDi0e/duXSASW0HguSgo+fHHH3UehhQEtGzZMpUuXTrXOwa8B0A0bNjQdRER4BdffFHbFRLKZ1Bc2oABfDgBrkJvowZz584dkNIPdYxwr4OLqeo5ePCgk+36+uuvFbUVvmMhLBs1auS6iCQJ+rdmzZra6MCsBAitc31e3pwMHU7Z0Nq1azVRLiT63LwuOs8xAQjWEvGWNOU333wTGhCNGzd2ASEPx8tg/QkQBESkL7Ijhg5WnjSsPIkURXZvVPuHDh2qC9+Ym+KTkDiCLRBsYoBYsGCBfhcQxpRNkCCBzhdgRcKKadOmDbiffiw3BCtmsrQZM2ZoBw5Ow7rDkCHoI4QlyIpiDmPBUrpEcMgcn3uxBlk8rGDyFl7PPmTIEMfLXL9+fWhANG3a1HMwJgAIfAEaQMydO1dbofgS27dvV5T00I+ckdWmpIcxt27dqsyADueUBPXv31/VqFFD2/r4NkIff/yxzlnCRTt27ND7nKo+fAlMdgJF+BoIbQrJSPTSh5nOVjYBQWuIu03kGgDNftc5MgK16Oq4IwcAgpen4c4ePXpUP6CZaWYMJkOeMA7cQKFXsAaXNGnSRDtwZr0kecrvv/9es7SZomMBlixZomUV52YfYbiRI0dquWC+AyWIAgSOVUhANGvWLCgQVM59/vnn+p1wzigSXbx4sfbgEEgS5ueBkB+Y6mgLnCz0OQBJY6927NhRrywCjW3FyhEoppF8gY179+6t3njjDV1UJnUOjL9z5041YMAAbQmjEhHeNIJG2A8mEHiXAgTFaSEB0aJFi4BBzAEBApeYBkfgfuMBopdJ/IwYMUL3sUpEmLUDc6f8j71vCkvkC/sdsJAjzAM3YqPQ4DaMH/Z9mjRpdFHq8ePHdR8g4R0zL1vv+eef15xJJ1xVr169AH+JajvJ17L1QgIC69F8efMcIGbPnq0fhiAoAk/6WXmEljQmZC9LP24xmkIaqhf7RPo5IqjZ77R9+/ap2rVrO/1sNbiAxvYzDT9ccSpjpJG4ASAZG1tCgOC6kIB4+eWXnQFkIDkChEh+Gwiu4WGlIRxLly7tjAUQ1GdKAwjzYbkfWYFcoO3fv1+vtMxNzPS7777TfXCjCQSVdLC8tA4dOiisYbmXcgABgufCsJM+zyNIg6ZnZ0SEHgAuoAHEzJkzA66tXr26I7zQIJIdYzzUISl5acgQ2+aHow4dOqQvOXDgQAAQaAlZdbaGCQRCHCEoDdljAvHuu+86QPBcIQHBvvQDApVFAwi4w7wWIKQemgklO8Y1rBoSXZoXEFi1AgRmsZQ9cz82hACB0CR4JHPDqaYgpqAdbSX9FM5LKQNqPiQgqIaXAewjAxC4oeGXIC/Ma6pVq+Zkl5mwfPnyTj+aQYQp9yMsJfwnYwAEANA4ktuUPsZC7tBQ1yYQ7HkTCCr9TSCISwoQyJlIgWDvtW/f3plcHkKODEDglgYQ2BTSxxEgxKbACJLsGH1IeISWNNRnrVq19JYRWYGwFBmB18jLikYhncD+pqEZ0G5itFEnISDRj1oVDxOBPHz4cMfEZnwSO7bRZb5HBEAgaAJ+jIjQN6H+sCDFVmALcA6Lo7dhR/a1GDgAhcCjeJxJeWi4DRuARj/W5bx58/TK843HTz/95BRvIAf4m3G5D0GJDKMxB/dSIEYf9gbjScO+wWpFeFPsDjeIsca4pCO4j0C0/a76b4BgYruTl8Cmp19elEkBA9OWlRs7dqwzmTwskyNQZeWITmOQyUNxHWYzniicJvJFXoi/sQEQdnZ2jefADIftxb6Q+zhSuoBdgjo2n1mu4cMaW307782Ldu7c2QUE7In642sbk7D4mAyjCmEGiBBSG8SJfwKgsDeAkFxhC7BNUGvcT4wCrgJQkzCM4ETiF2wN7AqIla5ataq+j22BdiIBxVzIEoQ0FT54mTiDnFMMZxKaJuj2AAgEjYOMEWvgJhC0CQ+RuAIGFaxmE7+b4wEK1iTqDZL7GYPfbeJ32VqMJQSo/A5xDX9DnAsxl5zLtXKUxTGfzTkHCFbZ+cEA4p76Df2M9XdPvbTXYiNIkNSRRnC8bo4nv7G9dMoPrsC1Dhbtic/cgp2krWVRLRhFuMFIdbxRIk5IbkBAwGH68h2nTfa3nvL3W2+9peMRxCRMwvBhDpuIMbJFTcJz9fpoDpOfqBiLZxPZesIBNhEyQIjyPkTisZAJ6hKzQGUHlAUACj+i8ykw7dKli74RUxnbgL5wiHFCJb9xsQmiSqh6AYJAkIwnjOACQjqwzEjwgKAAIX1x8Yi9oWVBRIQTETPfwxcIDCmAwBARx8u8OS6dY5yJfeNVGBcUCIIaJGfiCxBYpQIEQWK7+QKBgxNfgMBLFiD4jNpuvkDwpX98AQL3X4DwKozzBYKwenwBAsdNgPDyXIMCgX41gSCjFJcbkS+cOxb22LFjLjfdFwiMo/jCEVQFCRBHjhwJDwgsQgEirnOECQQhQTtw48sRJGvjCxC4DMIRXhGsoEBQJYNfIEBIADeuygnyJwIE6YOQOQIgiA0KEDg/eKkQwVCbCPB4EQFWm8iPQAR1TSLTDZHctQnh7UW4AjZ5/Ucjc2uQNggLCAKoAMFnQFiZeHR4d9Rbm0Skm7Q9BSUm4SHi5eEtmoS5DrB4gSYRDCYPQu20SWTM33vvPb0wLI4QW9frvxrhIxF+JBYrxDde4nSFBQQrg2sMEPGJiK+GpT7ZAuQH4lOwhqAxFqbUVZjyLqiw5CL2GpUvsBUJXXKZdgW8/E3I3iZqJbw+SaTIjJC8TaT6SRPYZH66aJ5L2SIBJJOo7Je6LDmSX8Go4isEYh928wWCi8k0kX5nX1MhQ2acII1JyAGyVzYhL5AdfKthEvKFghObkEFSimgeyXF6/Usm0oHkW0k1mkSNFS9sEkYUXB6sRQpEsBvj2+/3gbizoveBuA9E4Ob+H2K2OtCU+6RUAAAAAElFTkSuQmCC;" parent="1" vertex="1">
          <mxGeometry x="610" y="585" width="42.65" height="53" as="geometry" />
        </mxCell>
        <mxCell id="zXU1iS0vnF0tCq2ebF5h-4" value="&lt;font size=&quot;1&quot; face=&quot;Georgia&quot;&gt;&lt;b style=&quot;font-size: 16px;&quot;&gt;Krona&lt;/b&gt;&lt;/font&gt;" style="text;html=1;align=center;verticalAlign=middle;resizable=0;points=[];autosize=1;strokeColor=none;fillColor=none;" parent="1" vertex="1">
          <mxGeometry x="471.26" y="571" width="80" height="30" as="geometry" />
        </mxCell>
        <mxCell id="zXU1iS0vnF0tCq2ebF5h-9" value="" style="endArrow=none;html=1;rounded=1;strokeWidth=10;strokeColor=#7EB2DD;entryX=0;entryY=1;entryDx=0;entryDy=0;exitX=1;exitY=0.5;exitDx=0;exitDy=0;" parent="1" source="W8nmrq4eX2epeuX94_2g-81" target="W8nmrq4eX2epeuX94_2g-87" edge="1">
          <mxGeometry width="50" height="50" relative="1" as="geometry">
            <mxPoint x="355.99" y="546.58" as="sourcePoint" />
            <mxPoint x="530" y="507" as="targetPoint" />
            <Array as="points">
              <mxPoint x="450" y="570" />
              <mxPoint x="480" y="560" />
              <mxPoint x="510" y="537" />
            </Array>
          </mxGeometry>
        </mxCell>
        <mxCell id="W8nmrq4eX2epeuX94_2g-87" value="" style="ellipse;whiteSpace=wrap;html=1;aspect=fixed;rounded=1;rotation=0;strokeWidth=3;" parent="1" vertex="1">
          <mxGeometry x="520" y="480" width="20" height="20" as="geometry" />
        </mxCell>
        <mxCell id="W8nmrq4eX2epeuX94_2g-81" value="" style="ellipse;whiteSpace=wrap;html=1;aspect=fixed;rounded=1;rotation=0;strokeWidth=3;" parent="1" vertex="1">
          <mxGeometry x="325.99" y="602" width="20" height="20" as="geometry" />
        </mxCell>
        <mxCell id="zXU1iS0vnF0tCq2ebF5h-10" value="" style="endArrow=none;html=1;rounded=1;strokeWidth=10;strokeColor=#7EB2DD;entryX=0;entryY=0.5;entryDx=0;entryDy=0;exitX=1;exitY=0.5;exitDx=0;exitDy=0;" parent="1" source="W8nmrq4eX2epeuX94_2g-81" target="zXU1iS0vnF0tCq2ebF5h-1" edge="1">
          <mxGeometry width="50" height="50" relative="1" as="geometry">
            <mxPoint x="350" y="696.8" as="sourcePoint" />
            <mxPoint x="431" y="697" as="targetPoint" />
            <Array as="points" />
          </mxGeometry>
        </mxCell>
        <mxCell id="zXU1iS0vnF0tCq2ebF5h-5" value="" style="ellipse;whiteSpace=wrap;html=1;aspect=fixed;rounded=1;rotation=0;strokeWidth=3;" parent="1" vertex="1">
          <mxGeometry x="500" y="602" width="20" height="20" as="geometry" />
        </mxCell>
      </root>
    </mxGraphModel>
  </diagram>
</mxfile>
